<?xml version="1.0" encoding="UTF-8"?>
<svg id="Capa_2" data-name="Capa 2" xmlns="http://www.w3.org/2000/svg" xmlns:xlink="http://www.w3.org/1999/xlink" viewBox="0 0 314.94 183.7">
  <defs>
    <style>
      .cls-1 {
        fill: #fff;
      }

      .cls-2 {
        fill: #edc226;
      }

      .cls-3 {
        clip-path: url(#clippath-1);
      }

      .cls-4 {
        fill: #2d146e;
      }

      .cls-5 {
        clip-path: url(#clippath);
      }

      .cls-6 {
        fill: none;
      }

      .cls-7 {
        fill-rule: evenodd;
      }

      .cls-7, .cls-8 {
        fill: #3c9242;
      }
    </style>
    <clipPath id="clippath">
      <rect class="cls-6" width="314.94" height="183.7"/>
    </clipPath>
    <clipPath id="clippath-1">
      <rect class="cls-6" width="314.94" height="183.7"/>
    </clipPath>
  </defs>
  <g id="_4" data-name="4">
    <g id="BRAZIL">
      <g class="cls-5">
        <rect class="cls-8" width="314.94" height="183.7"/>
        <polygon class="cls-2" points="48.57 91.85 157.47 161.4 266.42 91.85 157.47 22.3 48.57 91.85"/>
        <g class="cls-3">
          <path class="cls-4" d="M203.38,91.85c0,25.36-20.55,45.92-45.91,45.92s-45.89-20.56-45.89-45.92,20.54-45.94,45.89-45.94,45.91,20.6,45.91,45.94"/>
          <path class="cls-1" d="M131.24,72.15c-5.39,0-10.65,.4-15.8,1.12-.99,2.25-1.8,4.6-2.44,7.02,5.92-1.02,12-1.57,18.24-1.57,26.9,0,51.5,10.15,70.07,26.84,.75-2.36,1.3-4.79,1.63-7.27-19.39-16.31-44.39-26.14-71.7-26.14"/>
          <path class="cls-7" d="M118.3,78.41c1.06-.13,1.83-1.2,1.67-2.4-.13-1.19-1.12-2.06-2.2-1.92-1.1,.11-1.85,1.21-1.67,2.4,.13,1.2,1.12,2.06,2.2,1.92m-.09-.8c.61-.08,1.04-.76,.97-1.51-.09-.76-.66-1.3-1.32-1.22-.64,.07-1.08,.74-.99,1.5,.11,.76,.7,1.3,1.34,1.23"/>
          <path class="cls-7" d="M121.88,78.04l.79-.07-.11-1.61,1.78-.12c.71-.05,1.28-.71,1.26-1.48-.07-.75-.73-1.33-1.47-1.27l-2.53,.17,.27,4.38Zm.62-2.49l1.69-.11c.31-.04,.51-.3,.51-.61-.04-.32-.27-.55-.57-.51l-1.7,.09,.07,1.15Z"/>
          <path class="cls-8" d="M125.56,77.77c-.04-.62-.11-1.99-1.06-1.94l-1.19,.08c1.36-.08,1.47,1.3,1.54,1.91"/>
          <path class="cls-7" d="M127.43,77.69l2.03-.05c1.06,0,1.87-.86,1.87-1.92l-.04-.62c-.02-1.02-.88-1.86-1.91-1.84l-2.03,.05,.07,4.38Zm.77-.83l1.19-.03c.66,0,1.19-.56,1.16-1.2v-.39c0-.62-.53-1.15-1.17-1.15l-1.21,.03,.04,2.74Z"/>
          <polygon class="cls-8" points="132.93 77.63 136.89 77.77 136.92 76.95 133.75 76.84 133.79 75.73 136.3 75.79 136.3 75.05 133.83 74.96 133.83 74.1 136.85 74.2 136.85 73.37 133.11 73.25 132.93 77.63"/>
          <polygon class="cls-8" points="138.52 77.86 139.27 77.93 139.52 74.94 140.11 78 140.83 78.07 141.94 75.15 141.69 78.14 142.42 78.21 142.81 73.84 141.74 73.75 140.59 76.66 139.98 73.59 138.88 73.5 138.52 77.86"/>
          <polygon class="cls-8" points="147.55 78.88 150.83 79.43 150.92 78.7 148.45 78.28 148.62 77.3 150.67 77.64 150.76 76.89 148.76 76.55 148.85 75.87 151.27 76.29 151.36 75.55 148.25 75 147.55 78.88"/>
          <path class="cls-7" d="M155.87,80.51l.77,.21,.44-1.57,1.67,.42c.75,.2,1.5-.25,1.7-.98,.16-.73-.27-1.48-.99-1.69l-2.42-.62-1.17,4.22Zm1.43-2.16l1.61,.43c.31,.08,.59-.1,.66-.4,.09-.3-.11-.61-.38-.69l-1.63-.42-.26,1.08Z"/>
          <path class="cls-7" d="M161.24,81.94l.79,.24,.5-1.54,1.63,.52c.75,.23,1.5-.17,1.74-.89,.24-.72-.16-1.49-.88-1.72l-2.42-.76-1.36,4.15Zm1.52-2.08l1.61,.51c.26,.08,.61-.06,.7-.38,.11-.3-.06-.6-.37-.7l-1.59-.51-.35,1.07Z"/>
          <path class="cls-8" d="M164.78,83.06c.2-.6,.61-1.9-.27-2.18l-1.12-.37c1.28,.42,.88,1.72,.68,2.33"/>
          <path class="cls-7" d="M168.37,84.35c1.03,.37,2.18-.23,2.6-1.36,.44-1.14-.04-2.36-1.06-2.74-1.03-.39-2.22,.22-2.62,1.34-.44,1.15,.07,2.36,1.08,2.76m.27-.77c.62,.25,1.3-.17,1.58-.88,.27-.72,0-1.47-.59-1.7-.61-.21-1.32,.17-1.59,.89-.27,.71,.04,1.47,.6,1.69"/>
          <path class="cls-7" d="M173.52,86.43c.99,.43,2.22-.13,2.69-1.22,.46-1.12,.05-2.36-.95-2.8-.99-.43-2.18,.1-2.66,1.22-.48,1.11-.07,2.36,.92,2.8m.33-.75c.59,.27,1.3-.1,1.59-.8,.31-.7,.07-1.48-.49-1.73-.59-.25-1.3,.1-1.59,.81-.31,.7-.11,1.48,.49,1.72"/>
          <polygon class="cls-8" points="174.68 84.54 176.22 85.21 175.92 85.78 174.44 85.1 174.68 84.54"/>
          <polygon class="cls-8" points="175.63 84.95 176.22 85.21 175.32 87.21 174.79 86.95 175.63 84.95"/>
          <path class="cls-7" d="M176.82,87.9l.72,.36,.72-1.47,1.56,.8c.68,.34,1.5,.06,1.83-.61,.35-.69,.07-1.51-.61-1.84l-2.22-1.12-2,3.89Zm1.8-1.81l1.5,.74c.27,.15,.6,.04,.75-.25,.13-.27,.04-.61-.24-.75l-1.54-.75-.48,1.01Z"/>
          <path class="cls-8" d="M180.12,89.56c.27-.56,.88-1.79,.05-2.21l-1.08-.55c1.26,.63,.64,1.86,.38,2.41"/>
          <polygon class="cls-8" points="181.75 90.42 185.2 92.35 185.56 91.65 182.81 90.08 183.35 89.1 185.53 90.34 185.89 89.66 183.73 88.45 184.17 87.67 186.75 89.15 187.19 88.45 183.9 86.6 181.75 90.42"/>
          <path class="cls-8" d="M188.15,92.55c-.24,.36,0,.78,.51,1.12,.53,.33,.88,.31,1.05,.09,.48-.77-2.27-1.86-1.43-3.16,.72-1.13,1.98-.26,2.46,.05,.48,.3,1.23,1.09,.64,1.99l-.81-.52c.27-.38,0-.77-.46-1.01-.4-.29-.73-.41-.97,0-.42,.6,2.31,1.73,1.45,3.05-.57,.96-1.65,.53-2.35,.09-.64-.39-1.52-1.31-.95-2.22l.86,.52Z"/>
          <path class="cls-8" d="M192.84,95.65c-.27,.35-.07,.78,.44,1.15,.51,.37,.9,.38,1.06,.15,.49-.72-2.22-1.97-1.26-3.23,.79-1.09,2.02-.15,2.46,.17,.48,.34,1.15,1.16,.51,2.02l-.75-.56c.24-.38,0-.76-.42-1.06-.4-.28-.68-.41-.95-.04-.44,.58,2.18,1.88,1.3,3.13-.68,.93-1.74,.46-2.38-.04-.6-.42-1.47-1.37-.82-2.26l.82,.57Z"/>
          <path class="cls-7" d="M197.26,100.69c.86,.68,2.15,.46,2.9-.49,.75-.95,.68-2.26-.16-2.93-.86-.69-2.15-.47-2.9,.49-.75,.94-.68,2.25,.16,2.93m.51-.65c.51,.42,1.3,.26,1.78-.35,.48-.59,.4-1.39-.07-1.79-.51-.41-1.26-.26-1.74,.35-.51,.6-.48,1.4,.04,1.79"/>
          <polygon class="cls-1" points="119.97 81.63 119.37 83.5 120.32 83.81 119.97 81.63"/>
          <polygon class="cls-1" points="119.97 81.63 120.59 83.5 119.66 83.81 119.97 81.63"/>
          <polygon class="cls-1" points="121.84 83 119.88 83 119.88 83.96 121.84 83"/>
          <polygon class="cls-1" points="121.84 83 120.28 84.14 119.66 83.35 121.84 83"/>
          <polygon class="cls-1" points="118.1 83 119.69 84.14 120.28 83.35 118.1 83"/>
          <polygon class="cls-1" points="118.1 83 120.08 83 120.08 83.96 118.1 83"/>
          <polygon class="cls-1" points="121.12 85.18 120.52 83.32 119.6 83.63 121.12 85.18"/>
          <polygon class="cls-1" points="121.12 85.18 119.53 84.02 120.12 83.22 121.12 85.18"/>
          <polygon class="cls-1" points="118.82 85.18 120.41 84.02 119.84 83.22 118.82 85.18"/>
          <polygon class="cls-1" points="118.82 85.18 119.44 83.32 120.39 83.63 118.82 85.18"/>
          <polygon class="cls-1" points="124.06 100.94 123.43 102.8 124.39 103.1 124.06 100.94"/>
          <polygon class="cls-1" points="124.06 100.94 124.64 102.8 123.73 103.1 124.06 100.94"/>
          <polygon class="cls-1" points="125.89 102.29 123.95 102.29 123.95 103.28 125.89 102.29"/>
          <polygon class="cls-1" points="125.89 102.29 124.33 103.46 123.75 102.64 125.89 102.29"/>
          <polygon class="cls-1" points="122.19 102.29 123.75 103.46 124.37 102.64 122.19 102.29"/>
          <polygon class="cls-1" points="122.19 102.29 124.17 102.29 124.17 103.28 122.19 102.29"/>
          <polygon class="cls-1" points="125.21 104.5 124.61 102.63 123.65 102.94 125.21 104.5"/>
          <polygon class="cls-1" points="125.21 104.5 123.62 103.33 124.18 102.55 125.21 104.5"/>
          <polygon class="cls-1" points="122.87 104.5 124.5 103.33 123.89 102.55 122.87 104.5"/>
          <polygon class="cls-1" points="122.87 104.5 123.47 102.63 124.42 102.94 122.87 104.5"/>
          <polygon class="cls-1" points="118.41 105.7 118.05 106.97 118.65 107.17 118.41 105.7"/>
          <polygon class="cls-1" points="118.41 105.7 118.82 106.97 118.21 107.17 118.41 105.7"/>
          <polygon class="cls-1" points="119.66 106.62 118.34 106.62 118.34 107.28 119.66 106.62"/>
          <polygon class="cls-1" points="119.66 106.62 118.61 107.4 118.23 106.87 119.66 106.62"/>
          <polygon class="cls-1" points="117.18 106.62 118.23 107.4 118.61 106.87 117.18 106.62"/>
          <polygon class="cls-1" points="117.18 106.62 118.49 106.62 118.49 107.28 117.18 106.62"/>
          <polygon class="cls-1" points="119.18 108.09 118.78 106.84 118.17 107.05 119.18 108.09"/>
          <polygon class="cls-1" points="119.18 108.09 118.14 107.31 118.52 106.77 119.18 108.09"/>
          <polygon class="cls-1" points="117.66 108.09 118.71 107.31 118.34 106.77 117.66 108.09"/>
          <polygon class="cls-1" points="117.66 108.09 118.05 106.84 118.65 107.05 117.66 108.09"/>
          <polygon class="cls-1" points="128.55 99.15 128.24 100.03 128.68 100.2 128.55 99.15"/>
          <polygon class="cls-1" points="128.55 99.15 128.82 100.03 128.38 100.2 128.55 99.15"/>
          <polygon class="cls-1" points="129.43 99.81 128.51 99.81 128.51 100.27 129.43 99.81"/>
          <polygon class="cls-1" points="129.43 99.81 128.68 100.36 128.42 99.98 129.43 99.81"/>
          <polygon class="cls-1" points="127.63 99.81 128.42 100.36 128.68 99.98 127.63 99.81"/>
          <polygon class="cls-1" points="127.63 99.81 128.58 99.81 128.58 100.27 127.63 99.81"/>
          <polygon class="cls-1" points="129.1 100.86 128.79 99.95 128.38 100.1 129.1 100.86"/>
          <polygon class="cls-1" points="129.1 100.86 128.35 100.3 128.62 99.91 129.1 100.86"/>
          <polygon class="cls-1" points="128 100.86 128.75 100.3 128.47 99.91 128 100.86"/>
          <polygon class="cls-1" points="128 100.86 128.27 99.95 128.71 100.1 128 100.86"/>
          <polygon class="cls-1" points="133.62 105.82 133.11 107.39 133.84 107.65 133.62 105.82"/>
          <polygon class="cls-1" points="133.62 105.82 134.1 107.39 133.35 107.65 133.62 105.82"/>
          <polygon class="cls-1" points="135.14 106.97 133.51 106.97 133.51 107.77 135.14 106.97"/>
          <polygon class="cls-1" points="135.14 106.97 133.83 107.93 133.35 107.25 135.14 106.97"/>
          <polygon class="cls-1" points="132.05 106.97 133.37 107.93 133.84 107.25 132.05 106.97"/>
          <polygon class="cls-1" points="132.05 106.97 133.68 106.97 133.68 107.77 132.05 106.97"/>
          <polygon class="cls-1" points="134.58 108.77 134.06 107.23 133.28 107.49 134.58 108.77"/>
          <polygon class="cls-1" points="134.58 108.77 133.24 107.82 133.72 107.17 134.58 108.77"/>
          <polygon class="cls-1" points="132.67 108.77 133.95 107.82 133.48 107.17 132.67 108.77"/>
          <polygon class="cls-1" points="132.67 108.77 133.15 107.23 133.92 107.49 132.67 108.77"/>
          <polygon class="cls-1" points="132.23 110.39 131.72 111.95 132.49 112.21 132.23 110.39"/>
          <polygon class="cls-1" points="132.23 110.39 132.73 111.95 131.96 112.21 132.23 110.39"/>
          <polygon class="cls-1" points="133.79 111.53 132.16 111.53 132.16 112.33 133.79 111.53"/>
          <polygon class="cls-1" points="133.79 111.53 132.45 112.49 131.97 111.82 133.79 111.53"/>
          <polygon class="cls-1" points="130.69 111.53 132.01 112.49 132.49 111.82 130.69 111.53"/>
          <polygon class="cls-1" points="130.69 111.53 132.32 111.53 132.32 112.33 130.69 111.53"/>
          <polygon class="cls-1" points="133.18 113.35 132.71 111.79 131.92 112.04 133.18 113.35"/>
          <polygon class="cls-1" points="133.18 113.35 131.85 112.37 132.36 111.73 133.18 113.35"/>
          <polygon class="cls-1" points="131.28 113.35 132.6 112.37 132.12 111.73 131.28 113.35"/>
          <polygon class="cls-1" points="131.28 113.35 131.77 111.79 132.56 112.04 131.28 113.35"/>
          <polygon class="cls-1" points="171.71 75.63 171.1 77.51 172.06 77.8 171.71 75.63"/>
          <polygon class="cls-1" points="171.71 75.63 172.33 77.51 171.38 77.8 171.71 75.63"/>
          <polygon class="cls-1" points="173.58 76.98 171.62 76.98 171.62 77.98 173.58 76.98"/>
          <polygon class="cls-1" points="173.58 76.98 171.98 78.15 171.41 77.34 173.58 76.98"/>
          <polygon class="cls-1" points="169.84 76.98 171.45 78.15 172.02 77.34 169.84 76.98"/>
          <polygon class="cls-1" points="169.84 76.98 171.82 76.98 171.82 77.98 169.84 76.98"/>
          <polygon class="cls-1" points="172.88 79.2 172.26 77.32 171.34 77.63 172.88 79.2"/>
          <polygon class="cls-1" points="172.88 79.2 171.27 78.04 171.85 77.23 172.88 79.2"/>
          <polygon class="cls-1" points="170.55 79.2 172.15 78.04 171.58 77.23 170.55 79.2"/>
          <polygon class="cls-1" points="170.55 79.2 171.18 77.32 172.13 77.63 170.55 79.2"/>
          <polygon class="cls-1" points="189.63 106.01 189.03 107.87 189.98 108.19 189.63 106.01"/>
          <polygon class="cls-1" points="189.63 106.01 190.26 107.87 189.34 108.19 189.63 106.01"/>
          <polygon class="cls-1" points="191.52 107.36 189.54 107.36 189.54 108.33 191.52 107.36"/>
          <polygon class="cls-1" points="191.52 107.36 189.94 108.52 189.34 107.71 191.52 107.36"/>
          <polygon class="cls-1" points="187.76 107.36 189.38 108.52 189.94 107.71 187.76 107.36"/>
          <polygon class="cls-1" points="187.76 107.36 189.74 107.36 189.74 108.33 187.76 107.36"/>
          <polygon class="cls-1" points="190.84 109.56 190.22 107.69 189.27 107.98 190.84 109.56"/>
          <polygon class="cls-1" points="190.84 109.56 189.23 108.41 189.82 107.6 190.84 109.56"/>
          <polygon class="cls-1" points="188.5 109.56 190.09 108.41 189.5 107.6 188.5 109.56"/>
          <polygon class="cls-1" points="188.5 109.56 189.1 107.69 190.05 107.98 188.5 109.56"/>
          <polygon class="cls-1" points="196.05 107.1 195.61 108.33 196.27 108.53 196.05 107.1"/>
          <polygon class="cls-1" points="196.05 107.1 196.45 108.33 195.79 108.53 196.05 107.1"/>
          <polygon class="cls-1" points="197.26 108 195.97 108 195.97 108.64 197.26 108"/>
          <polygon class="cls-1" points="197.26 108 196.21 108.77 195.83 108.23 197.26 108"/>
          <polygon class="cls-1" points="194.78 108 195.83 108.77 196.25 108.23 194.78 108"/>
          <polygon class="cls-1" points="194.78 108 196.1 108 196.1 108.64 194.78 108"/>
          <polygon class="cls-1" points="196.78 109.46 196.41 108.2 195.77 108.42 196.78 109.46"/>
          <polygon class="cls-1" points="196.78 109.46 195.73 108.69 196.14 108.15 196.78 109.46"/>
          <polygon class="cls-1" points="195.26 109.46 196.3 108.69 195.94 108.15 195.26 109.46"/>
          <polygon class="cls-1" points="195.26 109.46 195.66 108.2 196.27 108.42 195.26 109.46"/>
          <polygon class="cls-1" points="191.52 110.39 191.04 111.95 191.79 112.21 191.52 110.39"/>
          <polygon class="cls-1" points="191.52 110.39 192.01 111.95 191.28 112.21 191.52 110.39"/>
          <polygon class="cls-1" points="193.08 111.53 191.45 111.53 191.45 112.33 193.08 111.53"/>
          <polygon class="cls-1" points="193.08 111.53 191.79 112.49 191.28 111.82 193.08 111.53"/>
          <polygon class="cls-1" points="189.98 111.53 191.32 112.49 191.79 111.82 189.98 111.53"/>
          <polygon class="cls-1" points="189.98 111.53 191.61 111.53 191.61 112.33 189.98 111.53"/>
          <polygon class="cls-1" points="192.49 113.35 192 111.79 191.21 112.04 192.49 113.35"/>
          <polygon class="cls-1" points="192.49 113.35 191.17 112.37 191.65 111.73 192.49 113.35"/>
          <polygon class="cls-1" points="190.57 113.35 191.89 112.37 191.41 111.73 190.57 113.35"/>
          <polygon class="cls-1" points="190.57 113.35 191.06 111.79 191.85 112.04 190.57 113.35"/>
          <polygon class="cls-1" points="180.47 120.01 179.95 121.56 180.72 121.82 180.47 120.01"/>
          <polygon class="cls-1" points="180.47 120.01 180.96 121.56 180.17 121.82 180.47 120.01"/>
          <polygon class="cls-1" points="182.03 121.15 180.39 121.15 180.39 121.98 182.03 121.15"/>
          <polygon class="cls-1" points="182.03 121.15 180.69 122.11 180.21 121.44 182.03 121.15"/>
          <polygon class="cls-1" points="178.93 121.15 180.25 122.11 180.69 121.44 178.93 121.15"/>
          <polygon class="cls-1" points="178.93 121.15 180.56 121.15 180.56 121.98 178.93 121.15"/>
          <polygon class="cls-1" points="181.4 122.98 180.94 121.42 180.12 121.67 181.4 122.98"/>
          <polygon class="cls-1" points="181.4 122.98 180.08 122 180.56 121.35 181.4 122.98"/>
          <polygon class="cls-1" points="179.51 122.98 180.83 122 180.36 121.35 179.51 122.98"/>
          <polygon class="cls-1" points="179.51 122.98 180.01 121.42 180.8 121.67 179.51 122.98"/>
          <polygon class="cls-1" points="180.39 124.97 180.01 126.2 180.63 126.41 180.39 124.97"/>
          <polygon class="cls-1" points="180.39 124.97 180.8 126.2 180.17 126.41 180.39 124.97"/>
          <polygon class="cls-1" points="181.64 125.88 180.36 125.88 180.36 126.53 181.64 125.88"/>
          <polygon class="cls-1" points="181.64 125.88 180.56 126.63 180.17 126.11 181.64 125.88"/>
          <polygon class="cls-1" points="179.17 125.88 180.21 126.63 180.6 126.11 179.17 125.88"/>
          <polygon class="cls-1" points="179.17 125.88 180.47 125.88 180.47 126.53 179.17 125.88"/>
          <polygon class="cls-1" points="181.16 127.32 180.76 126.1 180.12 126.28 181.16 127.32"/>
          <polygon class="cls-1" points="181.16 127.32 180.08 126.57 180.49 126.04 181.16 127.32"/>
          <polygon class="cls-1" points="179.64 127.32 180.69 126.57 180.29 126.04 179.64 127.32"/>
          <polygon class="cls-1" points="179.64 127.32 180.05 126.1 180.65 126.28 179.64 127.32"/>
          <polygon class="cls-1" points="185.05 116.71 184.61 117.96 185.21 118.17 185.05 116.71"/>
          <polygon class="cls-1" points="185.05 116.71 185.42 117.96 184.81 118.17 185.05 116.71"/>
          <polygon class="cls-1" points="186.28 117.62 184.94 117.62 184.94 118.27 186.28 117.62"/>
          <polygon class="cls-1" points="186.28 117.62 185.21 118.4 184.81 117.88 186.28 117.62"/>
          <polygon class="cls-1" points="183.79 117.62 184.85 118.4 185.21 117.88 183.79 117.62"/>
          <polygon class="cls-1" points="183.79 117.62 185.12 117.62 185.12 118.27 183.79 117.62"/>
          <polygon class="cls-1" points="185.8 119.08 185.38 117.84 184.78 118.05 185.8 119.08"/>
          <polygon class="cls-1" points="185.8 119.08 184.74 118.32 185.16 117.79 185.8 119.08"/>
          <polygon class="cls-1" points="184.26 119.08 185.33 118.32 184.94 117.79 184.26 119.08"/>
          <polygon class="cls-1" points="184.26 119.08 184.68 117.84 185.29 118.05 184.26 119.08"/>
          <polygon class="cls-1" points="188.72 114.08 188.22 115.63 188.97 115.88 188.72 114.08"/>
          <polygon class="cls-1" points="188.72 114.08 189.23 115.63 188.42 115.88 188.72 114.08"/>
          <polygon class="cls-1" points="190.26 115.21 188.62 115.21 188.62 116.02 190.26 115.21"/>
          <polygon class="cls-1" points="190.26 115.21 188.97 116.18 188.5 115.5 190.26 115.21"/>
          <polygon class="cls-1" points="187.16 115.21 188.5 116.18 188.97 115.5 187.16 115.21"/>
          <polygon class="cls-1" points="187.16 115.21 188.79 115.21 188.79 116.02 187.16 115.21"/>
          <polygon class="cls-1" points="189.67 117.02 189.19 115.49 188.39 115.74 189.67 117.02"/>
          <polygon class="cls-1" points="189.67 117.02 188.35 116.07 188.83 115.41 189.67 117.02"/>
          <polygon class="cls-1" points="187.74 117.02 189.1 116.07 188.59 115.41 187.74 117.02"/>
          <polygon class="cls-1" points="187.74 117.02 188.28 115.49 189.03 115.74 187.74 117.02"/>
          <polygon class="cls-1" points="180.25 115.84 179.88 117.08 180.49 117.29 180.25 115.84"/>
          <polygon class="cls-1" points="180.25 115.84 180.69 117.08 180.05 117.29 180.25 115.84"/>
          <polygon class="cls-1" points="181.55 116.75 180.21 116.75 180.21 117.4 181.55 116.75"/>
          <polygon class="cls-1" points="181.55 116.75 180.47 117.51 180.08 116.97 181.55 116.75"/>
          <polygon class="cls-1" points="179.04 116.75 180.08 117.51 180.47 116.97 179.04 116.75"/>
          <polygon class="cls-1" points="179.04 116.75 180.36 116.75 180.36 117.4 179.04 116.75"/>
          <polygon class="cls-1" points="181.07 118.23 180.65 116.97 180.01 117.16 181.07 118.23"/>
          <polygon class="cls-1" points="181.07 118.23 179.99 117.43 180.36 116.93 181.07 118.23"/>
          <polygon class="cls-1" points="179.51 118.23 180.56 117.43 180.17 116.93 179.51 118.23"/>
          <polygon class="cls-1" points="179.51 118.23 179.92 116.97 180.56 117.16 179.51 118.23"/>
          <polygon class="cls-1" points="139.98 92.09 139.47 93.63 140.26 93.88 139.98 92.09"/>
          <polygon class="cls-1" points="139.98 92.09 140.48 93.63 139.71 93.88 139.98 92.09"/>
          <polygon class="cls-1" points="141.54 93.21 139.91 93.21 139.91 94.03 141.54 93.21"/>
          <polygon class="cls-1" points="141.54 93.21 140.22 94.19 139.74 93.51 141.54 93.21"/>
          <polygon class="cls-1" points="138.41 93.21 139.74 94.19 140.22 93.51 138.41 93.21"/>
          <polygon class="cls-1" points="138.41 93.21 140.04 93.21 140.04 94.03 138.41 93.21"/>
          <polygon class="cls-1" points="140.94 95.05 140.46 93.5 139.67 93.74 140.94 95.05"/>
          <polygon class="cls-1" points="140.94 95.05 139.6 94.08 140.07 93.41 140.94 95.05"/>
          <polygon class="cls-1" points="138.99 95.05 140.35 94.08 139.87 93.41 138.99 95.05"/>
          <polygon class="cls-1" points="138.99 95.05 139.52 93.5 140.28 93.74 138.99 95.05"/>
          <polygon class="cls-1" points="169.95 88.21 169.58 89.46 170.19 89.66 169.95 88.21"/>
          <polygon class="cls-1" points="169.95 88.21 170.39 89.46 169.75 89.66 169.95 88.21"/>
          <polygon class="cls-1" points="171.23 89.13 169.91 89.13 169.91 89.78 171.23 89.13"/>
          <polygon class="cls-1" points="171.23 89.13 170.15 89.9 169.78 89.37 171.23 89.13"/>
          <polygon class="cls-1" points="168.72 89.13 169.78 89.9 170.15 89.37 168.72 89.13"/>
          <polygon class="cls-1" points="168.72 89.13 170.06 89.13 170.06 89.78 168.72 89.13"/>
          <polygon class="cls-1" points="170.75 90.6 170.32 89.35 169.71 89.56 170.75 90.6"/>
          <polygon class="cls-1" points="170.75 90.6 169.67 89.81 170.06 89.28 170.75 90.6"/>
          <polygon class="cls-1" points="169.2 90.6 170.26 89.81 169.88 89.28 169.2 90.6"/>
          <polygon class="cls-1" points="169.2 90.6 169.6 89.35 170.22 89.56 169.2 90.6"/>
          <polygon class="cls-1" points="157.47 110.5 156.84 112.36 157.8 112.68 157.47 110.5"/>
          <polygon class="cls-1" points="157.47 110.5 158.07 112.36 157.16 112.68 157.47 110.5"/>
          <polygon class="cls-1" points="159.34 111.85 157.39 111.85 157.39 112.84 159.34 111.85"/>
          <polygon class="cls-1" points="159.34 111.85 157.76 113.02 157.19 112.21 159.34 111.85"/>
          <polygon class="cls-1" points="155.6 111.85 157.23 113.02 157.76 112.21 155.6 111.85"/>
          <polygon class="cls-1" points="155.6 111.85 157.56 111.85 157.56 112.84 155.6 111.85"/>
          <polygon class="cls-1" points="158.62 114.06 158.04 112.2 157.08 112.49 158.62 114.06"/>
          <polygon class="cls-1" points="158.62 114.06 157.05 112.9 157.6 112.11 158.62 114.06"/>
          <polygon class="cls-1" points="156.31 114.06 157.91 112.9 157.32 112.11 156.31 114.06"/>
          <polygon class="cls-1" points="156.31 114.06 156.92 112.2 157.87 112.49 156.31 114.06"/>
          <polygon class="cls-1" points="162.8 101.71 162.29 103.27 163.08 103.5 162.8 101.71"/>
          <polygon class="cls-1" points="162.8 101.71 163.31 103.27 162.53 103.5 162.8 101.71"/>
          <polygon class="cls-1" points="164.34 102.84 162.69 102.84 162.69 103.64 164.34 102.84"/>
          <polygon class="cls-1" points="164.34 102.84 163 103.8 162.53 103.14 164.34 102.84"/>
          <polygon class="cls-1" points="161.24 102.84 162.56 103.8 163.04 103.14 161.24 102.84"/>
          <polygon class="cls-1" points="161.24 102.84 162.87 102.84 162.87 103.64 161.24 102.84"/>
          <polygon class="cls-1" points="163.75 104.67 163.24 103.1 162.47 103.37 163.75 104.67"/>
          <polygon class="cls-1" points="163.75 104.67 162.43 103.7 162.91 103.03 163.75 104.67"/>
          <polygon class="cls-1" points="161.81 104.67 163.15 103.7 162.67 103.03 161.81 104.67"/>
          <polygon class="cls-1" points="161.81 104.67 162.32 103.1 163.11 103.37 161.81 104.67"/>
          <polygon class="cls-1" points="157.47 97.59 156.95 99.13 157.74 99.39 157.47 97.59"/>
          <polygon class="cls-1" points="157.47 97.59 157.96 99.13 157.23 99.39 157.47 97.59"/>
          <polygon class="cls-1" points="159.02 98.71 157.39 98.71 157.39 99.54 159.02 98.71"/>
          <polygon class="cls-1" points="159.02 98.71 157.71 99.66 157.23 99.01 159.02 98.71"/>
          <polygon class="cls-1" points="155.93 98.71 157.27 99.66 157.71 99.01 155.93 98.71"/>
          <polygon class="cls-1" points="155.93 98.71 157.56 98.71 157.56 99.54 155.93 98.71"/>
          <polygon class="cls-1" points="158.44 100.54 157.94 98.99 157.16 99.22 158.44 100.54"/>
          <polygon class="cls-1" points="158.44 100.54 157.12 99.58 157.6 98.91 158.44 100.54"/>
          <polygon class="cls-1" points="156.51 100.54 157.83 99.58 157.36 98.91 156.51 100.54"/>
          <polygon class="cls-1" points="156.51 100.54 157.01 98.99 157.8 99.22 156.51 100.54"/>
          <polygon class="cls-1" points="152.83 102.03 152.43 103.28 153.07 103.48 152.83 102.03"/>
          <polygon class="cls-1" points="152.83 102.03 153.27 103.28 152.63 103.48 152.83 102.03"/>
          <polygon class="cls-1" points="154.09 102.94 152.79 102.94 152.79 103.58 154.09 102.94"/>
          <polygon class="cls-1" points="154.09 102.94 153.03 103.71 152.63 103.16 154.09 102.94"/>
          <polygon class="cls-1" points="151.62 102.94 152.67 103.71 153.03 103.16 151.62 102.94"/>
          <polygon class="cls-1" points="151.62 102.94 152.9 102.94 152.9 103.58 151.62 102.94"/>
          <polygon class="cls-1" points="153.62 104.4 153.23 103.16 152.59 103.36 153.62 104.4"/>
          <polygon class="cls-1" points="153.62 104.4 152.57 103.63 152.98 103.1 153.62 104.4"/>
          <polygon class="cls-1" points="152.1 104.4 153.14 103.63 152.76 103.1 152.1 104.4"/>
          <polygon class="cls-1" points="152.1 104.4 152.5 103.16 153.11 103.36 152.1 104.4"/>
          <polygon class="cls-1" points="155.18 105.59 154.88 106.48 155.32 106.62 155.18 105.59"/>
          <polygon class="cls-1" points="155.18 105.59 155.45 106.48 155.01 106.62 155.18 105.59"/>
          <polygon class="cls-1" points="156.06 106.23 155.12 106.23 155.12 106.7 156.06 106.23"/>
          <polygon class="cls-1" points="156.06 106.23 155.32 106.79 155.05 106.41 156.06 106.23"/>
          <polygon class="cls-1" points="154.26 106.23 155.05 106.79 155.32 106.41 154.26 106.23"/>
          <polygon class="cls-1" points="154.26 106.23 155.21 106.23 155.21 106.7 154.26 106.23"/>
          <polygon class="cls-1" points="155.69 107.3 155.42 106.4 154.97 106.54 155.69 107.3"/>
          <polygon class="cls-1" points="155.69 107.3 154.94 106.74 155.25 106.35 155.69 107.3"/>
          <polygon class="cls-1" points="154.61 107.3 155.36 106.74 155.08 106.35 154.61 107.3"/>
          <polygon class="cls-1" points="154.61 107.3 154.92 106.4 155.36 106.54 154.61 107.3"/>
          <polygon class="cls-1" points="171.23 121.12 170.72 122.69 171.51 122.96 171.23 121.12"/>
          <polygon class="cls-1" points="171.23 121.12 171.74 122.69 170.94 122.96 171.23 121.12"/>
          <polygon class="cls-1" points="172.77 122.25 171.14 122.25 171.14 123.1 172.77 122.25"/>
          <polygon class="cls-1" points="172.77 122.25 171.45 123.23 170.97 122.55 172.77 122.25"/>
          <polygon class="cls-1" points="169.67 122.25 170.97 123.23 171.49 122.55 169.67 122.25"/>
          <polygon class="cls-1" points="169.67 122.25 171.3 122.25 171.3 123.1 169.67 122.25"/>
          <polygon class="cls-1" points="172.18 124.1 171.67 122.54 170.9 122.8 172.18 124.1"/>
          <polygon class="cls-1" points="172.18 124.1 170.86 123.14 171.34 122.48 172.18 124.1"/>
          <polygon class="cls-1" points="170.26 124.1 171.58 123.14 171.1 122.48 170.26 124.1"/>
          <polygon class="cls-1" points="170.26 124.1 170.75 122.54 171.54 122.8 170.26 124.1"/>
          <polygon class="cls-1" points="175.15 117.4 174.75 118.65 175.36 118.86 175.15 117.4"/>
          <polygon class="cls-1" points="175.15 117.4 175.56 118.65 174.92 118.86 175.15 117.4"/>
          <polygon class="cls-1" points="176.4 118.32 175.08 118.32 175.08 118.94 176.4 118.32"/>
          <polygon class="cls-1" points="176.4 118.32 175.36 119.07 174.95 118.56 176.4 118.32"/>
          <polygon class="cls-1" points="173.89 118.32 174.95 119.07 175.36 118.56 173.89 118.32"/>
          <polygon class="cls-1" points="173.89 118.32 175.23 118.32 175.23 118.94 173.89 118.32"/>
          <polygon class="cls-1" points="175.92 119.77 175.52 118.52 174.92 118.73 175.92 119.77"/>
          <polygon class="cls-1" points="175.92 119.77 174.88 119 175.26 118.47 175.92 119.77"/>
          <polygon class="cls-1" points="174.4 119.77 175.45 119 175.04 118.47 174.4 119.77"/>
          <polygon class="cls-1" points="174.4 119.77 174.81 118.52 175.43 118.73 174.4 119.77"/>
          <polygon class="cls-1" points="167.6 116.28 167.2 117.51 167.8 117.73 167.6 116.28"/>
          <polygon class="cls-1" points="167.6 116.28 168.01 117.51 167.4 117.73 167.6 116.28"/>
          <polygon class="cls-1" points="168.83 117.18 167.53 117.18 167.53 117.84 168.83 117.18"/>
          <polygon class="cls-1" points="168.83 117.18 167.77 117.96 167.4 117.41 168.83 117.18"/>
          <polygon class="cls-1" points="166.34 117.18 167.4 117.96 167.77 117.41 166.34 117.18"/>
          <polygon class="cls-1" points="166.34 117.18 167.68 117.18 167.68 117.84 166.34 117.18"/>
          <polygon class="cls-1" points="168.37 118.65 167.97 117.4 167.33 117.62 168.37 118.65"/>
          <polygon class="cls-1" points="168.37 118.65 167.29 117.88 167.69 117.36 168.37 118.65"/>
          <polygon class="cls-1" points="166.81 118.65 167.88 117.88 167.49 117.36 166.81 118.65"/>
          <polygon class="cls-1" points="166.81 118.65 167.22 117.4 167.88 117.62 166.81 118.65"/>
          <polygon class="cls-1" points="139.03 114.24 138.44 116.1 139.36 116.42 139.03 114.24"/>
          <polygon class="cls-1" points="139.03 114.24 139.63 116.1 138.72 116.42 139.03 114.24"/>
          <polygon class="cls-1" points="140.94 115.62 138.96 115.62 138.96 116.6 140.94 115.62"/>
          <polygon class="cls-1" points="140.94 115.62 139.31 116.76 138.76 115.97 140.94 115.62"/>
          <polygon class="cls-1" points="137.14 115.62 138.79 116.76 139.32 115.97 137.14 115.62"/>
          <polygon class="cls-1" points="137.14 115.62 139.12 115.62 139.12 116.6 137.14 115.62"/>
          <polygon class="cls-1" points="140.18 117.81 139.6 115.95 138.68 116.24 140.18 117.81"/>
          <polygon class="cls-1" points="140.18 117.81 138.61 116.65 139.16 115.86 140.18 117.81"/>
          <polygon class="cls-1" points="137.88 117.81 139.47 116.65 138.88 115.86 137.88 117.81"/>
          <polygon class="cls-1" points="137.88 117.81 138.52 115.95 139.43 116.24 137.88 117.81"/>
          <polygon class="cls-1" points="157.47 127.11 157.27 127.74 157.56 127.84 157.47 127.11"/>
          <polygon class="cls-1" points="157.47 127.11 157.67 127.74 157.39 127.84 157.47 127.11"/>
          <polygon class="cls-1" points="158.11 127.58 157.43 127.58 157.43 127.9 158.11 127.58"/>
          <polygon class="cls-1" points="158.11 127.58 157.56 127.96 157.39 127.69 158.11 127.58"/>
          <polygon class="cls-1" points="156.84 127.58 157.39 127.96 157.56 127.69 156.84 127.58"/>
          <polygon class="cls-1" points="156.84 127.58 157.49 127.58 157.49 127.9 156.84 127.58"/>
          <polygon class="cls-1" points="157.83 128.3 157.67 127.68 157.36 127.79 157.83 128.3"/>
          <polygon class="cls-1" points="157.83 128.3 157.32 127.92 157.49 127.67 157.83 128.3"/>
          <polygon class="cls-1" points="157.08 128.3 157.6 127.92 157.43 127.67 157.08 128.3"/>
          <polygon class="cls-1" points="157.08 128.3 157.3 127.68 157.6 127.79 157.08 128.3"/>
        </g>
      </g>
    </g>
  </g>
</svg>