<?xml version="1.0" encoding="UTF-8"?>
<svg id="Capa_2" data-name="Capa 2" xmlns="http://www.w3.org/2000/svg" xmlns:xlink="http://www.w3.org/1999/xlink" viewBox="0 0 314.94 183.7">
  <defs>
    <style>
      .cls-1 {
        fill: #fff;
      }

      .cls-2 {
        fill: #2a690b;
      }

      .cls-3 {
        clip-path: url(#clippath-1);
      }

      .cls-4 {
        fill: #bc0030;
      }

      .cls-5 {
        fill: #3e60bd;
      }

      .cls-6 {
        fill: #f5cd28;
      }

      .cls-7 {
        clip-path: url(#clippath);
      }

      .cls-8 {
        fill: none;
      }

      .cls-9 {
        fill: #f8e72a;
      }

      .cls-10 {
        fill: #2534a4;
      }
    </style>
    <clipPath id="clippath">
      <rect class="cls-8" width="314.94" height="183.7"/>
    </clipPath>
    <clipPath id="clippath-1">
      <rect class="cls-8" width="314.94" height="183.7"/>
    </clipPath>
  </defs>
  <g id="_4" data-name="4">
    <g id="PARAGUAY">
      <g class="cls-7">
        <rect class="cls-1" y="61.23" width="314.94" height="61.24"/>
        <rect class="cls-10" y="122.47" width="314.94" height="61.23"/>
        <rect class="cls-4" width="314.94" height="61.23"/>
        <g class="cls-3">
          <path class="cls-1" d="M180.8,91.85c0,12.89-10.46,23.33-23.36,23.33s-23.32-10.44-23.32-23.33,10.46-23.32,23.32-23.32,23.36,10.44,23.36,23.32h0Z"/>
          <path d="M157.44,115.56c-13.07,0-23.71-10.64-23.71-23.72s10.64-23.72,23.71-23.72,23.74,10.65,23.74,23.72-10.66,23.72-23.74,23.72h0Zm0-46.66c-12.65,0-22.94,10.3-22.94,22.95s10.29,22.95,22.94,22.95,22.96-10.29,22.96-22.95-10.29-22.95-22.96-22.95h0Z"/>
          <path class="cls-4" d="M157.44,71.84c-11.02,0-19.99,8.96-19.99,20s8.97,20,19.99,20,20.02-8.96,20.02-20-8.96-20-20.02-20h0Zm0,35c-8.27,0-14.99-6.72-14.99-15s6.72-15.01,14.99-15.01,15.01,6.74,15.01,15.01-6.71,15-15.01,15h0Z"/>
          <path d="M157.44,111.88c-11.04,0-20.01-8.99-20.01-20.03s8.97-20.03,20.01-20.03,20.04,8.99,20.04,20.03-8.98,20.03-20.04,20.03h0Zm0-40c-11.01,0-19.98,8.95-19.98,19.97s8.97,19.98,19.98,19.98,20-8.95,20-19.98-8.97-19.97-20-19.97h0Zm0,35c-8.27,0-15.02-6.75-15.02-15.04s6.74-15.03,15.02-15.03,15.04,6.75,15.04,15.03-6.74,15.04-15.04,15.04h0Zm0-30.02c-8.24,0-14.98,6.72-14.98,14.98s6.74,14.97,14.98,14.97,14.99-6.71,14.99-14.97-6.71-14.98-14.99-14.98h0Z"/>
          <path class="cls-2" d="M160.6,80.94s9.01,3.87,7.43,11.89c-1.57,8.02-6.57,7.95-8.55,8.84-1.96,.88-3.32,2.13-4.11,1.96-.75-.17-1.79-.76-1.79-.76,0,0-.08,1.31,1.49,1.55,1.59,.24,3.67-2.07,4.65-2.35,.99-.25,7.11-.92,8.6-9.05,1.74-8.71-7.66-11.82-7.73-12.08h0Z"/>
          <path d="M155.34,104.47h0l-.26-.02c-1.58-.25-1.5-1.57-1.5-1.57h0c.06,0,1.06,.58,1.81,.73,.6-.02,1.21-.34,1.98-.82,.6-.38,1.3-.79,2.11-1.15,.34-.15,.75-.27,1.22-.4,2.39-.71,6-1.79,7.31-8.41,1.2-6.18-3.95-9.92-6.22-11.23l-.72-.37c-.35-.19-.47-.24-.49-.27s.49,.17,1.25,.6l-.04,.05c5.27,2.67,7.52,6.63,6.57,11.43-.92,5.02-3.73,8.05-8.33,9.01-.65,.17-1.15,.52-1.74,.96-.93,.69-2,1.48-2.95,1.48h0Zm-1.76-1.58s-.02,1.26,1.52,1.51h.24c.93,0,2.01-.77,2.94-1.45,.59-.42,1.09-.8,1.45-.9,4.89-1.02,7.67-4.03,8.59-9.04,.95-4.76-1.3-8.72-6.52-11.42,2.31,1.28,7.48,5.02,6.28,11.24-1.31,6.67-4.96,7.72-7.35,8.45-.47,.14-.89,.26-1.23,.39-.8,.36-1.5,.79-2.1,1.16-.77,.46-1.39,.83-1.84,.83-.93-.18-1.96-.79-1.96-.79h0Z"/>
          <path class="cls-2" d="M165.15,82.66c.17,.66,.17,1.2,0,1.22-.16,0-.43-.52-.59-1.17-.17-.67-.17-1.22,0-1.24,.14,0,.43,.52,.59,1.19h0Z"/>
          <path d="M165.15,83.9c-.19,0-.46-.61-.6-1.19-.16-.56-.17-1.06-.07-1.22,.04,0,.07,0,.09,0-.14,.18-.11,.66,.03,1.18,.18,.72,.44,1.16,.56,1.16v.03l.06-.05c.08-.16,.07-.63-.06-1.17-.15-.54-.35-.95-.49-1.1,.22,.16,.4,.62,.51,1.1,.16,.55,.19,1.04,.07,1.19l-.09,.05h0Z"/>
          <path class="cls-2" d="M164.84,82.73c.31,.63,.45,1.2,.3,1.23-.15,.06-.51-.41-.83-1.04-.32-.63-.44-1.17-.28-1.24,.13-.06,.52,.41,.82,1.04h0Z"/>
          <path d="M165.1,83.99c-.17,0-.54-.53-.82-1.05-.27-.52-.42-1.02-.33-1.21,.02,0,.05,0,.08,0-.1,.2,0,.65,.3,1.2,.29,.62,.63,1.04,.76,1.04h.04c.08-.19-.06-.71-.32-1.22-.23-.46-.47-.8-.63-.95,.24,.16,.49,.54,.67,.94,.28,.53,.42,1.04,.35,1.22l-.1,.06h0Z"/>
          <path class="cls-2" d="M163.96,83.32c.63,.17,1.12,.49,1.12,.63-.02,.18-.55,.17-1.19-.02-.63-.18-1.14-.48-1.12-.65,.02-.17,.53-.16,1.19,.04h0Z"/>
          <path d="M164.75,84.1c-.23,0-.55-.05-.87-.15-.59-.17-1.16-.48-1.16-.67,.12-.04,.22-.04,.29-.06-.21,.24,.23,.49,.86,.68,.33,.11,.66,.17,.87,.17v.02l.3-.13c0-.13-.43-.41-1.12-.61-.24-.07-.47-.13-.68-.15,.26,0,.49,.04,.7,.1,.57,.16,1.14,.47,1.13,.65l-.33,.15h0Z"/>
          <path class="cls-2" d="M164.07,83c.59,.38,1.01,.82,.93,.95-.06,.15-.6-.06-1.17-.46-.59-.39-.99-.82-.92-.95,.06-.13,.59,.07,1.16,.46h0Z"/>
          <path d="M164.89,84.02c-.2,0-.64-.19-1.07-.49-.54-.35-1.04-.82-.95-1h.14c-.14,.15,.21,.56,.83,.95,.43,.31,.85,.49,1.05,.49v.04l.08-.05c.06-.12-.3-.53-.91-.94-.42-.26-.82-.47-1.03-.49,.31,.02,.68,.2,1.04,.45,.52,.35,1.02,.82,.94,.98l-.14,.06h0Z"/>
          <path class="cls-2" d="M164.45,82.85c.5,.5,.81,1.01,.7,1.11-.09,.13-.59-.2-1.08-.72s-.82-1.01-.7-1.13c.1-.12,.6,.21,1.08,.73h0Z"/>
          <path d="M165.08,84.01c-.17,0-.61-.29-1.04-.76-.44-.46-.82-1.02-.69-1.16,.27-.04,.69,.29,1.12,.74,.46,.44,.83,1.01,.68,1.16l-.06,.02h0Zm-1.65-1.9c-.14,.11,.12,.57,.63,1.11,.49,.49,.87,.73,1.02,.73v.04l.06-.04c.08-.08-.18-.55-.7-1.1-.47-.48-.87-.74-1.01-.74h0Z"/>
          <path class="cls-2" d="M165.07,83.96s-.34,.22-.42,.23c-.07,.04-.18-.1-.4,.02-.23,.12-.4,.34-.45,.46-.06,.13,.06,.18,.33,.05,.29-.14,.36-.34,.5-.43,.13-.09,.37-.21,.49-.26,.03-.12,.24-.38,.32-.52,.1-.15,.45-.39,.59-.68,.11-.24,.07-.43-.06-.36-.17,.08-.37,.33-.47,.49-.09,.16,0,.39-.12,.54-.09,.11-.27,.46-.3,.46h0Z"/>
          <path d="M163.88,84.8l-.1-.02c.06-.27,.22-.48,.45-.6h.4c.08-.04,.4-.21,.44-.23l.3-.46-.02-.02,.12-.54c.1-.17,.29-.41,.47-.49l.12,.39c-.1,.17-.28,.34-.42,.48l-.3,.38c-.08,.13-.19,.26-.2,.32-.15,.07-.39,.2-.5,.28-.21,.24-.29,.33-.49,.42l-.27,.07h0Z"/>
          <path class="cls-2" d="M167.87,84.89c0,1.03-.16,1.81-.38,1.76-.24-.07-.43-.93-.45-1.96-.02-1.02,.16-1.8,.38-1.75,.24,.06,.44,.94,.46,1.95h0Z"/>
          <path d="M167.5,86.65h-.04c-.27-.06-.45-1.04-.47-1.96,0-.82,.12-1.54,.29-1.71,.04,0,.06,0,.09,.03-.24,.22-.33,.9-.33,1.69,0,1.11,.23,1.87,.43,1.92l.02,.04,.08-.07c.15-.17,.27-.86,.27-1.69-.02-.74-.12-1.35-.25-1.67,.19,.36,.27,1.04,.27,1.67,.02,.85-.1,1.54-.27,1.72l-.1,.04h0Z"/>
          <path class="cls-2" d="M167.4,84.87c.24,1.05,.24,1.9,0,1.91-.23,0-.59-.82-.81-1.86-.22-1.04-.22-1.91,0-1.92,.22,0,.58,.83,.81,1.87h0Z"/>
          <path d="M167.4,86.79c-.27,0-.62-.94-.82-1.87-.2-.91-.22-1.68-.06-1.9,.04,0,.06,0,.08,0-.2,.25-.16,1.02,.04,1.89,.23,1.1,.58,1.85,.77,1.85h0s.06-.06,.06-.06c.14-.17,.12-.96-.08-1.82-.17-.82-.42-1.44-.6-1.7,.27,.28,.5,1,.65,1.69,.19,.91,.22,1.69,.07,1.87l-.1,.05h0Z"/>
          <path class="cls-2" d="M165.96,85.33c.82,.54,1.42,1.19,1.35,1.41-.08,.23-.8-.03-1.64-.58-.82-.55-1.4-1.18-1.33-1.42,.08-.24,.8,.04,1.62,.59h0Z"/>
          <path d="M167.14,86.86c-.3,0-.87-.28-1.47-.68-.83-.57-1.44-1.2-1.35-1.44,.05-.02,.12-.03,.17-.03-.15,.28,.37,.87,1.2,1.43,.61,.41,1.17,.65,1.46,.65v.03l.14-.08c.06-.18-.44-.81-1.32-1.41-.42-.26-.82-.47-1.11-.58,.35,.08,.74,.29,1.13,.56,.83,.56,1.43,1.19,1.35,1.46l-.18,.09h0Z"/>
          <path class="cls-2" d="M166.26,84.92c.67,.82,1.09,1.61,.95,1.79-.15,.16-.8-.36-1.48-1.18-.67-.82-1.1-1.62-.95-1.79,.16-.16,.81,.36,1.48,1.18h0Z"/>
          <path d="M167.13,86.77c-.23,0-.83-.51-1.42-1.23-.61-.74-1.12-1.6-.95-1.82,.32-.05,.92,.46,1.52,1.17,.61,.73,1.13,1.63,.95,1.81l-.1,.06h0Zm-2.27-3.05c-.18,.18,.17,.92,.89,1.79,.59,.69,1.16,1.2,1.38,1.2v.04l.06-.06c.12-.12-.23-.86-.95-1.75-.59-.7-1.16-1.21-1.38-1.21h0Z"/>
          <path class="cls-2" d="M166.84,84.86c.5,.95,.78,1.81,.59,1.92-.18,.12-.74-.58-1.27-1.55-.51-.93-.78-1.8-.6-1.92,.19-.1,.77,.58,1.28,1.54h0Z"/>
          <path d="M167.38,86.83c-.24,0-.75-.65-1.25-1.56-.47-.85-.8-1.82-.58-1.95,.21-.05,.8,.62,1.28,1.53,.47,.86,.82,1.83,.59,1.95l-.05,.03h0Zm-1.77-3.48c-.19,.1,0,.88,.56,1.9,.51,.95,1.02,1.54,1.21,1.54h0s.03,0,.03,0c.16-.09-.06-.88-.59-1.9-.48-.88-.99-1.53-1.2-1.53h0Z"/>
          <path class="cls-2" d="M167.33,86.77s-.55,.12-.66,.12c-.12,0-.24-.24-.59-.18-.36,.07-.64,.31-.76,.47-.1,.16,.04,.28,.47,.22,.42-.07,.59-.34,.81-.39,.22-.07,.57-.14,.75-.14,.14-.17,.45-.45,.64-.63,.17-.17,.76-.35,1.04-.71,.25-.28,.25-.6,0-.54-.26,.06-.6,.31-.8,.51-.16,.2-.14,.54-.33,.71-.15,.14-.55,.56-.57,.56h0Z"/>
          <path d="M165.58,87.44l-.29-.1c.02-.05,.04-.1,.07-.14l.22,.22,.19-.04c.28-.06,.42-.17,.57-.27,.48-.21,.82-.29,1.01-.29,.06-.11,.28-.27,.43-.43,.26-.25,.38-.31,.54-.39,.24-.13,.51-.28,.69-.5,.1-.11,.16-.24,.17-.32,.02,.13-.05,.26-.13,.36-.18,.22-.48,.39-.71,.51-.16,.07-.27,.14-.33,.2-.36,.32-.54,.51-.64,.61-.2,0-.54,.07-.75,.16-.38,.24-.55,.37-.82,.4l-.21,.02h0Zm-.19-.29c.16-.23,.38-.4,.7-.45l.47,.1c.21,.06,.73-.05,.78-.05l.55-.55c.11-.08,.14-.21,.19-.35,.02-.13,.06-.27,.16-.37,.17-.21,.54-.46,.8-.51,.03,.04,.06,.06,.1,.11-.38,0-.71,.24-.88,.43-.08,.1-.11,.23-.14,.36-.04,.14-.09,.27-.19,.37l-.59,.55s-.62,.13-.66,.14l-.48-.2c-.42,.07-.68,.29-.81,.43h0Z"/>
          <path class="cls-2" d="M169.33,88.64c-.16,1-.49,1.73-.7,1.64-.22-.11-.26-1.01-.08-2.02,.17-1,.49-1.75,.7-1.64,.22,.09,.26,1,.08,2.02h0Z"/>
          <path d="M168.67,90.31l-.06-.02c-.26-.1-.24-1.13-.08-2.03,.14-.82,.41-1.68,.66-1.68,.31,.13,.31,1.15,.16,2.06-.16,.93-.45,1.67-.68,1.67h0Zm.56-3.68c-.19,0-.49,.63-.66,1.65-.19,1.07-.11,1.9,.06,1.97h.04c.17,0,.47-.6,.63-1.64,.17-.99,.13-1.89-.07-1.98h0Z"/>
          <path class="cls-2" d="M168.89,88.52c.02,1.07-.14,1.91-.35,1.87-.22-.03-.42-.93-.45-1.99-.02-1.08,.11-1.92,.35-1.88,.22,.04,.41,.92,.45,2h0Z"/>
          <path d="M168.56,90.42h-.02c-.27-.04-.45-1.07-.47-2.02-.04-.91,.08-1.69,.25-1.87h.02s.05,0,.08,.03c-.24,.22-.33,.97-.3,1.84,.04,1.17,.25,1.93,.44,1.97l.06-.04c.15-.17,.27-.94,.25-1.81-.04-.85-.15-1.48-.27-1.81,.19,.36,.29,1.09,.31,1.81,.04,.9-.09,1.68-.25,1.85l-.1,.05h0Z"/>
          <path class="cls-2" d="M167.4,88.67c.71,.72,1.17,1.47,1.05,1.68-.12,.21-.79-.17-1.49-.88-.71-.7-1.17-1.46-1.05-1.68,.12-.2,.78,.18,1.49,.88h0Z"/>
          <path d="M168.34,90.43c-.27,0-.82-.38-1.37-.95-.73-.71-1.19-1.47-1.07-1.7,.06,0,.1,0,.14,0-.17,.26,.21,.93,.95,1.68,.55,.55,1.11,.93,1.36,.93v.02l.1-.06c.1-.18-.3-.89-1.05-1.64-.42-.4-.83-.74-1.13-.87,.34,.12,.74,.43,1.15,.83,.72,.72,1.19,1.48,1.05,1.7l-.13,.06h0Z"/>
          <path class="cls-2" d="M167.75,88.34c.51,.93,.79,1.81,.61,1.95-.17,.14-.72-.51-1.24-1.46-.51-.93-.79-1.8-.61-1.94,.17-.15,.73,.5,1.24,1.45h0Z"/>
          <path d="M168.32,90.34c-.23,0-.73-.64-1.2-1.48-.47-.85-.82-1.82-.62-1.99,.38,0,.8,.59,1.27,1.45,.46,.83,.82,1.81,.61,1.98l-.06,.04h0Zm-1.74-3.45c-.2,.15,.02,.93,.57,1.93,.46,.82,.96,1.46,1.17,1.46v.02l.04-.04c.15-.11-.07-.92-.62-1.92-.45-.82-.95-1.46-1.15-1.46h0Z"/>
          <path class="cls-2" d="M168.34,88.38c.34,1.04,.43,1.95,.22,2.02-.19,.07-.62-.72-.95-1.75-.32-1.04-.44-1.94-.24-2.02,.2-.06,.64,.72,.97,1.76h0Z"/>
          <path d="M168.54,90.44c-.26,0-.69-.92-.95-1.78-.3-.93-.47-1.95-.24-2.04h.02c.28,0,.67,.77,.99,1.77,.3,.92,.46,1.95,.22,2.04h-.04Zm-1.14-3.78c-.19,.06-.12,.88,.22,2,.35,1.08,.74,1.74,.92,1.74v.03l.02-.04c.17-.07,.12-.87-.24-1.98-.33-1.04-.73-1.75-.92-1.75h0Z"/>
          <path class="cls-2" d="M168.46,90.36s-.55,0-.67,0c-.11-.03-.17-.28-.53-.28s-.69,.17-.83,.31c-.12,.15-.02,.29,.41,.3,.44,0,.66-.23,.87-.24,.22-.02,.59-.03,.75,0,.16-.12,.54-.35,.73-.48,.21-.13,.81-.21,1.14-.5,.28-.25,.36-.55,.1-.53-.25,0-.64,.17-.85,.34-.22,.17-.24,.51-.47,.66-.17,.1-.62,.43-.66,.42h0Z"/>
          <path d="M167.75,90.47l.4-.05s.09-.03,.17-.04h-.52c-.21-.17-.29-.27-.53-.27h0c-.3,0-.58,.1-.72,.2,.39-.35,.98-.23,1.16-.06l.41,.1c.39,0,.56-.14,.69-.22,.41-.27,.48-.39,.53-.51,.07-.14,.14-.27,.26-.36,.19-.16,.6-.34,.85-.34,.04,.04,.06,.07,.08,.1-.38-.06-.72,.13-.92,.27-.1,.09-.17,.22-.22,.33-.07,.13-.14,.25-.25,.34l-.33,.19c-.05,.06-.08,.08-.12,.09,.07-.04,.16-.07,.23-.11,.35-.23,.49-.27,.65-.33,.25-.07,.56-.16,.75-.36,.14-.1,.2-.22,.24-.3,0,.13-.08,.24-.21,.35-.19,.17-.51,.28-.76,.37-.17,.05-.3,.08-.39,.12-.43,.3-.61,.41-.72,.49h-.73Z"/>
          <path class="cls-2" d="M169.44,92.77c-.55,.87-1.12,1.43-1.27,1.25-.15-.17,.17-1.03,.72-1.91,.53-.84,1.11-1.42,1.27-1.23,.15,.18-.17,1.04-.72,1.89h0Z"/>
          <path d="M168.24,94.08l-.09-.06c-.18-.2,.21-1.13,.7-1.92,.49-.76,.97-1.29,1.23-1.29,.02,.03,.04,.05,.06,.08-.27,.04-.8,.5-1.25,1.24-.57,.93-.82,1.71-.71,1.87l.06,.02c.19,0,.64-.41,1.17-1.26,.46-.73,.72-1.36,.74-1.66,.02,.35-.27,1.01-.71,1.69-.47,.76-.97,1.29-1.21,1.29h0Z"/>
          <path class="cls-2" d="M169.07,92.5c-.38,1.01-.84,1.72-1.04,1.6-.18-.12-.02-1.04,.37-2.03,.38-1.01,.85-1.73,1.04-1.61,.19,.13,.04,1.04-.37,2.04h0Z"/>
          <path d="M168.09,94.14l-.07-.03c-.22-.14,.02-1.17,.37-2.05,.37-.93,.8-1.63,1.03-1.63,.27,.17,.05,1.17-.3,2.08-.38,.94-.79,1.63-1.02,1.63h0Zm1.33-3.67c-.22,0-.61,.6-1,1.6-.41,1.07-.54,1.91-.37,2.01h.04c.16,0,.59-.59,.96-1.59,.42-1.08,.54-1.91,.39-2.02h-.02Z"/>
          <path class="cls-2" d="M167.67,92.03c.35,.95,.49,1.83,.32,1.99-.19,.15-.64-.49-1.01-1.43-.37-.94-.5-1.83-.31-1.99,.17-.15,.62,.5,1,1.43h0Z"/>
          <path d="M167.91,94.06c-.23,0-.63-.61-.95-1.48-.38-.95-.49-1.84-.31-2h.02c.31,0,.7,.6,1.02,1.44,.39,.96,.5,1.84,.32,2l-.09,.04h0Zm-1.19-3.46c-.21,.15-.11,.98,.27,1.99,.35,.93,.73,1.42,.92,1.42v.04l.05-.05c.15-.13,.06-.95-.32-1.94-.36-.92-.75-1.46-.93-1.46h0Z"/>
          <path class="cls-2" d="M168.12,91.86c.11,1.08,.02,2.01-.18,2.06-.22,.06-.47-.76-.59-1.84-.08-1.08,0-2,.22-2.05,.21-.06,.45,.75,.55,1.83h0Z"/>
          <path d="M167.9,93.95c-.25,0-.49-.95-.55-1.86-.1-.98-.06-2.02,.2-2.09h.02c.28,0,.5,.95,.59,1.86,.07,.98,.03,2.02-.22,2.09h-.04Zm-.31-3.9c-.2,.04-.3,.87-.2,2.03,.1,1.1,.35,1.83,.51,1.83v.02l.02-.04c.17-.04,.28-.87,.19-2.03-.1-1.13-.36-1.81-.52-1.81h0Z"/>
          <path class="cls-2" d="M168.62,92.16c-.1,1.11-.38,1.98-.57,1.95-.2,0-.3-.91-.2-2.02,.12-1.1,.37-1.99,.59-1.96,.22,.02,.29,.92,.18,2.02h0Z"/>
          <path d="M168.05,94.14l-.08-.06c-.17-.2-.24-1.04-.14-1.99,.1-.99,.33-1.99,.59-1.99,.27,.26,.33,1.08,.24,2.05-.1,.99-.34,1.98-.61,1.98h0Zm.41-3.95c-.22,0-.46,.73-.59,1.91-.08,.93-.03,1.78,.13,1.97l.05,.05h0c.17,0,.43-.75,.55-1.95,.09-.97,.04-1.79-.12-1.97h-.02Z"/>
          <path class="cls-2" d="M167.99,94.03s-.5-.2-.62-.27c-.08-.06-.04-.34-.37-.48-.31-.16-.69-.13-.88-.05-.16,.05-.11,.26,.27,.44,.39,.19,.67,.06,.87,.14,.22,.06,.53,.21,.69,.32,.18-.06,.62-.11,.85-.15,.24-.05,.82,.15,1.22,.02,.35-.12,.54-.37,.3-.47-.21-.09-.65-.09-.91-.03-.26,.06-.41,.37-.67,.41-.19,.02-.74,.15-.76,.11h0Z"/>
          <path d="M167.95,94.15h0c-.16-.1-.47-.24-.67-.31,.34,.08,.55,.18,.69,.27,.12-.04,.37-.08,.59-.1l.64-.02c.14,.02,.31,.03,.48,.03,.42-.08,.59-.17,.68-.25-.03,.12-.16,.2-.33,.25-.53,.05-.69,.02-.84,0l-.38-.02c-.47,.07-.72,.11-.83,.15h-.02Zm.05-.08c-.05,0-.56-.23-.64-.27-.12-.26-.17-.39-.39-.49-.18-.09-.37-.11-.5-.11l-.41,.14c0,.09,.11,.21,.33,.33,.2,.1,.37,.1,.52,.1,.12,.03,.23,.05,.33,.07-.49-.03-.67-.05-.87-.14-.24-.12-.37-.26-.37-.37l.47-.18c.14,0,.34,.03,.52,.12,.23,.09,.28,.25,.33,.37,.17,.17,.62,.38,.66,.38,.08,.02,.24,0,.39-.06,.49-.07,.59-.16,.69-.25,.11-.08,.2-.18,.35-.21,.27-.07,.72-.06,.93,.03,0,.04,0,.1,0,.12-.33-.24-.66-.17-.93-.11-.43,.3-.53,.39-.67,.41-.52,.09-.68,.13-.74,.13h0Z"/>
          <path class="cls-2" d="M168.32,97c-.89,.78-1.69,1.17-1.81,.92-.12-.27,.5-1.07,1.38-1.84,.89-.75,1.71-1.15,1.83-.9,.11,.24-.53,1.06-1.41,1.82h0Z"/>
          <path d="M166.67,98.01l-.19-.1c-.1-.27,.52-1.09,1.4-1.85,.72-.59,1.39-1,1.7-1,.02,.04,.04,.07,.06,.11-.39,.05-1.07,.37-1.7,.93-.95,.81-1.5,1.6-1.38,1.81l.12,.06c.29,0,.97-.41,1.65-1,.57-.49,.99-.97,1.22-1.31-.2,.39-.65,.9-1.2,1.36-.69,.6-1.37,1-1.67,1h0Z"/>
          <path class="cls-2" d="M168.02,96.57c-.75,.96-1.5,1.58-1.68,1.37-.17-.18,.33-1.14,1.07-2.11,.75-.97,1.51-1.59,1.68-1.39,.16,.19-.32,1.14-1.07,2.13h0Z"/>
          <path d="M166.43,98.01l-.1-.05c-.21-.23,.38-1.26,1.07-2.16,.67-.84,1.32-1.43,1.58-1.43,.04,.03,.06,.06,.06,.08h0c-.35,0-.98,.59-1.62,1.38-.8,1.04-1.2,1.94-1.07,2.09l.07,.04c.26,0,.92-.6,1.58-1.42,.6-.76,.96-1.44,1.06-1.81-.08,.45-.53,1.18-1.04,1.84-.67,.83-1.33,1.44-1.6,1.44h0Z"/>
          <path class="cls-2" d="M166.61,95.54c.07,1.17-.05,2.2-.3,2.3-.27,.08-.56-.76-.64-1.95-.09-1.16,.06-2.19,.31-2.29,.26-.1,.53,.76,.63,1.94h0Z"/>
          <path d="M166.26,97.86c-.27,0-.51-.82-.61-1.97-.09-1.16,.04-2.21,.31-2.32h.02c.35,0,.59,1,.67,1.97,.07,1.2-.07,2.24-.34,2.3l-.06,.02h0Zm-.23-4.24c-.27,.09-.43,1.02-.34,2.27,.1,1.19,.38,1.94,.57,1.94h0s.04,0,.04,0c.22-.09,.39-1.02,.3-2.28-.1-1.21-.37-1.92-.57-1.92h0Z"/>
          <path class="cls-2" d="M167.17,95.5c-.25,1.24-.64,2.23-.9,2.21-.25,0-.25-1.01-.02-2.24,.26-1.22,.66-2.2,.91-2.2,.25,0,.25,1,0,2.24h0Z"/>
          <path d="M166.27,97.74l-.1-.06c-.18-.21-.15-1.14,.06-2.21,.23-1.11,.62-2.24,.93-2.24,0,.04,.03,.05,.05,.08-.16,.05-.66,.84-.94,2.16-.19,1.05-.23,1.95-.06,2.17l.06,.06v-.02c.22,0,.62-.88,.87-2.19,.18-.87,.22-1.65,.15-2.01,.12,.41,.07,1.16-.1,2.02-.21,1.06-.61,2.22-.92,2.22h0Z"/>
          <path class="cls-2" d="M167.64,96c-.5,1.19-1.06,2.06-1.3,1.97-.24-.09,0-1.12,.48-2.28,.47-1.2,1.04-2.06,1.27-1.97,.23,.07,.03,1.12-.45,2.28h0Z"/>
          <path d="M166.38,98h-.04c-.2-.35,.02-1.28,.44-2.34,.45-1.14,1-1.98,1.27-1.98,.31,.11,.04,1.27-.4,2.33-.48,1.15-1,1.99-1.27,1.99h0Zm1.7-4.27c-.24,0-.76,.75-1.25,1.96-.41,1.02-.63,1.93-.51,2.22l.06,.06c.22,0,.74-.72,1.23-1.96,.51-1.25,.64-2.2,.49-2.27h-.02Z"/>
          <path class="cls-2" d="M166.31,97.84s-.5-.41-.59-.51c-.08-.11,.05-.38-.25-.66-.33-.28-.72-.38-.93-.36-.22,0-.24,.22,.13,.57,.37,.36,.72,.31,.93,.47,.19,.15,.5,.44,.64,.6,.23,0,.71,.11,.97,.15,.29,.06,.86,.46,1.37,.47,.41,0,.7-.2,.48-.39-.24-.19-.69-.34-.98-.38-.32,0-.59,.27-.9,.21-.21-.04-.84-.09-.86-.16h0Z"/>
          <path d="M168.6,98.57h-.03c-.33,0-.66-.16-.93-.3-.17-.06-.33-.15-.43-.15-.52-.1-.82-.16-.97-.16-.14-.17-.43-.43-.64-.59,.35,.21,.56,.41,.66,.54,.17,.02,.43,.06,.67,.1,.4,.06,.56,.14,.72,.21,.28,.13,.61,.28,.93,.28l.03,.04v-.04c.17,0,.3-.03,.38-.08-.08,.11-.24,.14-.38,.14h0Zm.45-.29c-.28-.31-.71-.44-.98-.46-.2-.11-.32,.04-.43,.09-.13,.06-.26,.11-.39,.11l-.49-.06c-.43-.06-.47-.06-.47-.1-.02,.02-.52-.43-.59-.51-.06-.3-.06-.48-.25-.67-.22-.2-.5-.31-.74-.33,.29,0,.54,.09,.78,.31,.19,.18,.21,.38,.23,.52,.12,.25,.55,.64,.6,.66,0,.02,.25,.06,.43,.07,.16,0,.34,.05,.41,.07,.19,0,.33-.06,.45-.11,.13-.05,.25-.1,.39-.1,.35,0,.83,.15,1.03,.37,.02,.06,0,.11,0,.14h0Z"/>
          <path class="cls-2" d="M165.44,100.69c-1.29,.22-2.29,.14-2.26-.18,.04-.3,1.09-.72,2.36-.93,1.27-.2,2.27-.14,2.24,.17-.03,.3-1.09,.73-2.34,.94h0Z"/>
          <path d="M164.15,100.85c-.5,0-.83-.07-.95-.21,0-.04,.02-.07,.02-.1,.27,.33,1.13,.32,2.21,.15,.91-.15,1.7-.41,2.09-.67-.38,.29-1.17,.55-2.07,.71-.49,.09-.92,.13-1.29,.13h0Zm-.66-.62c.38-.27,1.14-.52,2.05-.67,1.13-.18,2.02-.13,2.23,.08,0,.03-.02,.06-.02,.1-.25-.35-1.12-.31-2.21-.14-.89,.15-1.68,.39-2.05,.62h0Z"/>
          <path class="cls-2" d="M165.38,100.08c-1.26,.49-2.34,.65-2.35,.38-.07-.3,.92-.93,2.16-1.41,1.28-.48,2.33-.63,2.38-.35,.06,.28-.92,.91-2.19,1.38h0Z"/>
          <path d="M163.37,100.62c-.24,0-.37-.06-.38-.16-.06-.31,.92-.94,2.2-1.43,1.23-.48,2.35-.65,2.4-.34,.06,.29-.9,.93-2.2,1.42-.8,.31-1.58,.5-2.02,.5h0Zm3.69-1.95c-.61,0-1.22,.17-1.86,.41-1.36,.5-2.22,1.13-2.18,1.38l.35,.1c.43,0,1.21-.17,2.01-.49,1.35-.51,2.21-1.13,2.17-1.37-.17-.02-.34-.04-.49-.04h0Z"/>
          <path class="cls-2" d="M164.59,98.32c-.55,1.15-1.26,2.07-1.57,2.02-.29-.06-.09-1.04,.47-2.22,.55-1.17,1.23-2.08,1.55-2.02,.3,.06,.1,1.05-.45,2.22h0Z"/>
          <path d="M163.04,100.35h-.02s-.04-.06-.06-.1l.07,.05c.33,0,1-.87,1.52-1.99,.31-.66,.51-1.26,.58-1.69-.02,.46-.23,1.05-.53,1.71-.56,1.12-1.22,2.02-1.57,2.02h0Zm-.13-.44c0-.46,.22-1.09,.54-1.82,.55-1.13,1.22-2.02,1.56-2.02,.03,.04,.05,.08,.06,.12h0c-.42,0-1.07,.87-1.58,1.94-.34,.71-.55,1.38-.59,1.79h0Z"/>
          <path class="cls-2" d="M165.14,98.61c-.91,1.04-1.84,1.74-2.08,1.57-.23-.15,.31-1.1,1.21-2.13,.92-1.03,1.83-1.73,2.09-1.57,.24,.15-.31,1.12-1.22,2.13h0Z"/>
          <path d="M163.15,100.24l-.11-.04s-.02-.07-.02-.12l.13,.09c.32,0,1.17-.67,1.97-1.58,.48-.55,.86-1.07,1.09-1.49-.18,.45-.57,.98-1.06,1.52-.81,.93-1.65,1.61-2,1.61h0Zm-.07-.4c.14-.46,.59-1.14,1.17-1.81,.82-.93,1.68-1.59,2.02-1.59,.02,.05,.04,.08,.04,.14h-.02c-.45,0-1.24,.64-1.99,1.48-.62,.7-1.09,1.39-1.23,1.79h0Z"/>
          <path class="cls-2" d="M165.3,99.34c-1.12,.85-2.14,1.35-2.3,1.14-.17-.23,.6-1.07,1.69-1.92,1.12-.85,2.13-1.35,2.31-1.13,.17,.22-.59,1.08-1.7,1.92h0Z"/>
          <path d="M163.15,100.55l-.16-.07s.02-.07,.02-.13v.03l.15,.13c.35,0,1.24-.48,2.14-1.17,.56-.42,1.03-.84,1.33-1.19,.18-.23,.31-.4,.37-.53-.02,.17-.18,.38-.33,.56-.32,.35-.77,.78-1.33,1.21-.92,.69-1.81,1.17-2.17,1.17h0Zm-.11-.31c.19-.45,.82-1.07,1.63-1.71,.93-.69,1.82-1.18,2.19-1.18,.04,.04,.06,.06,.06,.08-.35,.1-1.33,.48-2.23,1.14-.83,.64-1.48,1.31-1.66,1.68h0Z"/>
          <path class="cls-2" d="M163.02,100.35s-.26-.69-.27-.83c-.04-.15,.27-.35,.12-.79-.14-.46-.49-.79-.71-.89-.21-.13-.35,.08-.18,.62,.15,.53,.52,.72,.63,.98,.1,.26,.26,.71,.3,.94,.2,.12,.62,.5,.85,.71,.26,.19,.58,.91,1.05,1.22,.4,.23,.8,.21,.7-.11-.11-.29-.48-.72-.78-.92-.28-.2-.7-.09-.95-.31-.18-.17-.76-.59-.76-.63h0Z"/>
          <path d="M165.28,102.5c-.14,0-.31-.06-.49-.17-.29-.19-.53-.55-.73-.83-.11-.17-.22-.31-.32-.39-.47-.39-.72-.6-.84-.71-.06-.24-.19-.66-.31-.91,.21,.39,.31,.71,.34,.89,.13,.07,.38,.3,.61,.48,.35,.29,.45,.44,.57,.61,.2,.28,.44,.63,.73,.81,.17,.12,.31,.18,.45,.18v.02l.04-.02-.04,.04h0Zm.17-.21c-.12-.4-.47-.8-.74-.99-.11-.09-.27-.1-.45-.15-.18,0-.37-.04-.5-.17l-.35-.27c-.39-.31-.41-.34-.41-.38h0c-.05,0-.27-.82-.27-.82,.12-.31,.2-.5,.12-.79-.1-.3-.28-.53-.45-.71,.23,.17,.4,.4,.49,.71,.1,.28,0,.48-.05,.61-.03,.32,.19,.96,.19,1,.04,.06,.24,.2,.43,.35l.35,.28c.12,.11,.28,.14,.47,.16,.17,.03,.36,.06,.49,.17,.28,.19,.67,.61,.77,.92l-.06,.09h0Zm-2.89-2.85c-.35-.45-.53-.62-.62-.97-.09-.3-.09-.55-.02-.63,.05,0,.11,.02,.16,.04-.17,.12-.17,.33-.1,.59,.1,.33,.27,.52,.43,.67,.06,.12,.12,.21,.16,.31h0Z"/>
          <path class="cls-2" d="M161.62,102.76c-1.3,.02-2.36-.26-2.34-.65,0-.37,1.04-.68,2.36-.7,1.29-.03,2.36,.27,2.36,.62,0,.39-1.07,.7-2.38,.72h0Z"/>
          <path d="M161.5,102.78c-1.01,0-1.89-.19-2.16-.46v-.16c.38,.41,1.2,.57,2.16,.57v.03l.12-.03c1.31,0,2.35-.32,2.35-.7,0-.33-.99-.6-2.22-.6-.86,0-1.62,.14-2.05,.31,.39-.23,1.12-.35,1.93-.36h0c1.38,0,2.38,.29,2.38,.65,0,.41-1.05,.72-2.4,.74h-.12Z"/>
          <path class="cls-2" d="M161.33,100.63c-.83,1.07-1.73,1.74-2.01,1.52-.29-.24,.17-1.29,.99-2.35,.82-1.07,1.71-1.75,2.01-1.52,.27,.23-.17,1.28-.99,2.35h0Z"/>
          <path d="M159.47,102.21l-.17-.06c-.29-.23,.16-1.26,.99-2.36,.71-.93,1.48-1.57,1.87-1.57,.04,.03,.06,.05,.1,.07-.47-.14-1.26,.63-1.94,1.51-.81,1.05-1.26,2.11-.98,2.32l.14,.04c.36,0,1.13-.65,1.83-1.54,.54-.72,.92-1.42,1.04-1.88-.06,.48-.43,1.18-1,1.9-.72,.93-1.49,1.57-1.87,1.57h0Z"/>
          <path class="cls-2" d="M161.66,101.73c-1.22,.53-2.3,.68-2.44,.3-.14-.34,.73-1.04,1.95-1.57,1.21-.51,2.32-.65,2.45-.31,.12,.34-.75,1.05-1.96,1.58h0Z"/>
          <path d="M159.72,102.26c-.3,0-.48-.07-.54-.22-.14-.35,.74-1.05,1.97-1.58,1.19-.53,2.35-.67,2.47-.32,.14,.37-.72,1.07-1.97,1.6-.73,.31-1.47,.51-1.93,.51h0Zm3.39-2.27c-.47,0-1.2,.18-1.94,.49-1.19,.51-2.07,1.23-1.93,1.55,.14,.32,1.26,.17,2.4-.32,1.17-.5,2.08-1.23,1.96-1.55-.05-.12-.21-.17-.49-.17h0Z"/>
          <path class="cls-2" d="M162.3,81.15c.61,.53,.95,1.04,.8,1.14-.15,.08-.75-.29-1.36-.83-.6-.54-.96-1.04-.82-1.15,.17-.07,.77,.29,1.37,.84h0Z"/>
          <path d="M163.04,82.33c-.21,0-.76-.36-1.32-.86-.53-.48-.86-.93-.84-1.09h.09c-.05,.18,.24,.57,.79,1.05,.52,.49,1.07,.85,1.28,.85h0s.04,0,.04,0c.06-.19-.23-.59-.8-1.11-.39-.35-.78-.65-1.05-.77,.31,.12,.71,.4,1.09,.73,.51,.47,.86,.93,.84,1.11l-.12,.09h0Z"/>
          <path class="cls-2" d="M161.57,81.77c.81,.09,1.48,.31,1.52,.5,.04,.16-.6,.21-1.42,.1-.8-.1-1.48-.34-1.52-.5-.04-.16,.61-.22,1.42-.1h0Z"/>
          <path d="M162.46,82.45c-.22,0-.49-.02-.79-.06-.73-.1-1.5-.31-1.54-.52,.22-.38,.89-.2,1.44-.14,.72,.1,1.5,.3,1.54,.51-.09,.18-.45,.2-.65,.2h0Zm-1.66-.72c-.33,0-.57,.05-.61,.11,0,.17,.63,.4,1.5,.52,.71,.09,1.27,.06,1.37-.06-.02-.17-.62-.39-1.5-.51-.27-.05-.53-.06-.75-.06h0Z"/>
          <path class="cls-2" d="M161.86,81.37c.77,.39,1.32,.81,1.24,.95-.07,.14-.77-.08-1.54-.48-.75-.38-1.3-.82-1.24-.93,.1-.14,.77,.07,1.54,.46h0Z"/>
          <path d="M162.98,82.39c-.26,0-.84-.21-1.43-.52-.66-.33-1.2-.71-1.25-.89,.05-.03,.1-.04,.15-.04,0,.24,.51,.59,1.12,.91,.59,.29,1.15,.5,1.41,.5v.02l.05-.05-.05,.06h0Zm.09-.1c-.05-.17-.5-.52-1.23-.9-.38-.2-.8-.37-1.07-.44,.31,.04,.71,.2,1.1,.41,.68,.34,1.2,.72,1.26,.91l-.06,.02h0Z"/>
          <path class="cls-2" d="M151.2,100.46s1.98,.43,3.69,1.04c1.73,.62,4.35,2.78,5.06,2.91,.79,.04,1.88-.24,2.31-1.38-1.24,.33-1.95,.82-3.12,.18-.41-.15-1.75-1.38-3.23-2.02-1.48-.66-4.43-1.4-4.43-1.4l-.28,.67Z"/>
          <path d="M160.08,104.44h-.13c-.34-.06-1.04-.54-1.88-1.08-.98-.65-2.24-1.47-3.18-1.83-1.7-.6-3.67-1.05-3.69-1.05l.26-.71h0c.08,0,3.01,.73,4.47,1.38,.93,.41,1.8,1.04,2.44,1.51,.35,.27,.64,.47,.78,.52,.83,.45,1.53,.31,2.41,.04l.69-.22c-.43,1.29-1.66,1.43-2.16,1.43h0Zm-8.86-3.98c.13,0,2.04,.43,3.69,1.04,.95,.33,2.2,1.15,3.2,1.82,.82,.53,1.52,1.01,1.84,1.06h.13c.5,0,1.71-.13,2.14-1.36l-.67,.25c-.88,.27-1.59,.42-2.42-.05-.16-.06-.42-.25-.81-.51-.62-.48-1.48-1.11-2.43-1.51-1.44-.65-4.4-1.38-4.44-1.39l-.25,.67v-.02h0Z"/>
          <path class="cls-2" d="M153.31,82.55s2.27-1.19,2.27-1.19l-2.5,.63-.29,.46,.52,.1Z"/>
          <path d="M153.33,82.57l-.54-.11,.27-.49,2.52-.64s-2.19,1.19-2.25,1.25h0Zm2.25-1.24l-2.49,.66-.28,.45,.52,.08c.08-.06,.49-.29,2.25-1.19h0Z"/>
          <path class="cls-2" d="M155.48,83.11c-.88-.17-2.25-.46-3.11-.53,.61-.66,1.42-1.78,1.92-2.47-.34,.66-.85,1.52-1.07,2.16,.61,.32,1.57,.58,2.25,.84h0Z"/>
          <path d="M155.47,83.11l-.68-.11c-.8-.16-1.75-.35-2.42-.4,.57-.68,1.4-1.81,1.91-2.51l-.28,.66c-.28,.5-.61,1.06-.73,1.52,.38,.19,.93,.38,1.46,.55l.76,.27v.03h0Zm-1.19-3.02c-.48,.72-1.29,1.85-1.89,2.5,.65,0,1.62,.21,2.42,.37l.38,.06-.49-.16c-.52-.18-1.07-.36-1.48-.58,.13-.47,.44-1.04,.72-1.55l.34-.64h0Z"/>
          <path class="cls-2" d="M152.9,82.68s2.03-1.57,2.03-1.57l-2.36,1.06-.2,.49,.53,.02Z"/>
          <path d="M152.9,82.72l-.53-.04,.18-.52,2.36-1.06s-1.93,1.56-2.01,1.61h0Zm2.01-1.61l-2.32,1.1-.2,.48h.49c.1-.08,.46-.36,2.02-1.58h0Z"/>
          <path class="cls-2" d="M155.07,83.09c-.89-.17-2.24-.49-3.13-.56,.61-.68,1.41-1.84,1.89-2.55-.31,.68-.83,1.57-1.04,2.22,.64,.33,1.6,.61,2.28,.89h0Z"/>
          <path d="M155.07,83.11l-.71-.14c-.82-.17-1.75-.38-2.43-.43,.56-.7,1.35-1.8,1.84-2.51h-.02c-.5,.82-1.24,1.86-1.81,2.49,.66,.04,1.61,.23,2.41,.39l.4,.08-.49-.18c-.53-.17-1.08-.38-1.49-.6,.12-.5,.44-1.1,.72-1.63l.22-.45-.18,.46c-.27,.55-.57,1.13-.72,1.6,.4,.21,.95,.39,1.48,.58l.77,.27v.05h0Z"/>
          <polygon class="cls-2" points="152.57 82.82 154.95 81.81 152.39 82.23 152.05 82.66 152.57 82.82"/>
          <path d="M152.57,82.85l-.53-.17,.33-.44,2.57-.43c-.63,.29-2.31,.99-2.36,1.04h-.02Zm2.37-1.04l-2.56,.47-.32,.39,.5,.13c.1-.06,.53-.25,2.37-.99h0Z"/>
          <path class="cls-2" d="M154.79,83.11c-.9-.09-2.29-.26-3.13-.24,.49-.76,1.15-2.02,1.56-2.8-.24,.72-.64,1.69-.76,2.36,.63,.28,1.64,.45,2.34,.67h0Z"/>
          <path d="M154.79,83.11l-.78-.06c-.75-.07-1.61-.16-2.23-.16h0c.73-.02,1.52,.05,2.23,.11l.5,.05-.52-.13c-.55-.13-1.14-.27-1.56-.46,.06-.51,.3-1.15,.52-1.73l.13-.39-.08,.4c-.22,.6-.45,1.23-.53,1.7,.41,.17,.98,.31,1.54,.43l.8,.21-.02,.03h0Zm-2.6-1.1c.3-.62,.67-1.3,.95-1.82l-.02,.03c-.27,.56-.61,1.21-.93,1.8h0Z"/>
          <path class="cls-2" d="M152.32,82.82s1.62-1.96,1.62-1.96l-2.05,1.53-.08,.51,.51-.08Z"/>
          <path d="M151.77,82.94l.1-.55,2.06-1.54c-.4,.56-1.56,1.92-1.59,1.99l-.57,.1h0Zm2.16-2.09l-2.02,1.57-.1,.47,.5-.08s.16-.21,1.61-1.95h0Z"/>
          <path class="cls-2" d="M154.78,83.22c-.96-.02-2.45-.11-3.36-.02,.45-.84,1.02-2.27,1.37-3.15-.16,.81-.5,1.89-.56,2.63,.71,.26,1.79,.38,2.56,.54h0Z"/>
          <path d="M154.78,83.25l-.81-.03c-.87-.02-1.87-.05-2.56,0,.39-.84,.93-2.19,1.31-3.06v.03c-.38,1.01-.9,2.25-1.29,3.03,.61-.16,1.67-.07,2.54-.03h.54c-.18-.05-.38-.06-.6-.1-.59-.1-1.22-.21-1.69-.38,.02-.53,.17-1.22,.35-1.85l.12-.49-.06,.5c-.17,.62-.35,1.3-.37,1.8,.45,.16,1.08,.26,1.67,.37,.3,.06,.6,.1,.86,.16v.05h0Z"/>
          <path class="cls-2" d="M152.01,83.29s1.95-1.88,1.95-1.88l-2.37,1.32-.17,.56h.59Z"/>
          <path d="M152.01,83.32h-.59l.15-.59,2.37-1.33c-.72,.76-1.89,1.86-1.92,1.92h-.02Zm1.93-1.92l-2.34,1.37-.17,.53,.57-.02c.06-.09,.41-.43,1.93-1.88h0Z"/>
          <path class="cls-2" d="M154.36,83.29c-1.04,.02-2.63-.05-3.65,.06,.67-.95,1.59-2.54,2.15-3.51-.37,.9-.93,2.1-1.16,2.92,.72,.25,1.85,.35,2.67,.52h0Z"/>
          <path d="M150.68,83.39l.02-.05c.65-.94,1.58-2.51,2.13-3.48h0c-.54,1.02-1.4,2.53-2.06,3.48,.52-.07,1.17-.09,1.83-.09l1.66,.02c-.17-.02-.48-.06-.8-.12-.61-.09-1.26-.19-1.76-.37,.14-.61,.48-1.37,.78-2.1l.33-.76-.28,.8c-.29,.71-.63,1.46-.79,2.04,.46,.16,1.11,.25,1.74,.35,.32,.05,.62,.11,.89,.16l-.85,.05h-.92c-.68,0-1.36,0-1.87,.06l-.05,.02h0Z"/>
          <path class="cls-2" d="M151.33,83.44s2.51-2.13,2.51-2.13l-2.84,1.5-.28,.62h.61Z"/>
          <path d="M150.68,83.46l.3-.66,2.84-1.51c-.82,.74-2.42,2.1-2.47,2.16h-.67Zm3.14-2.16l-2.8,1.55-.26,.58h.56s.25-.22,2.5-2.13h0Z"/>
          <path class="cls-2" d="M153.98,83.35c-1.02,.15-2.61,.32-3.6,.59,.54-1.04,1.21-2.71,1.65-3.74-.26,.92-.66,2.17-.76,3,.78,.17,1.9,.11,2.71,.16h0Z"/>
          <path d="M150.33,83.96l.02-.03c.53-1.01,1.19-2.61,1.6-3.64v.02c-.41,1.1-1.04,2.61-1.54,3.59,.78-.18,1.83-.33,2.73-.45l.83-.11c-.28,.02-.59,0-.9,0-.64,0-1.31,0-1.81-.13,.06-.62,.29-1.44,.5-2.19l.17-.6-.13,.62c-.2,.74-.44,1.54-.5,2.14,.47,.07,1.14,.08,1.78,.11,.31,0,.61,0,.9,.03l-.82,.14c-.93,.13-2.03,.28-2.79,.48h-.05Z"/>
          <path class="cls-2" d="M151,83.86s1.94-2.68,1.94-2.68l-2.43,2.17-.12,.67,.6-.17Z"/>
          <path d="M150.37,84.07l.14-.72,2.42-2.2c-.49,.77-1.87,2.64-1.91,2.7l-.65,.21h0Zm2.54-2.91l-2.37,2.21-.12,.62,.57-.16s.19-.29,1.92-2.68h0Z"/>
          <path class="cls-2" d="M153.41,83.67c-1.02,.1-2.63,.18-3.62,.39,.58-1.01,1.37-2.64,1.83-3.65-.27,.92-.76,2.13-.91,2.97,.75,.19,1.9,.19,2.69,.28h0Z"/>
          <path d="M149.74,84.09l.02-.05c.59-1.02,1.37-2.64,1.84-3.63l-.26,.92c-.25,.72-.49,1.48-.62,2.05,.5,.09,1.13,.14,1.75,.19,.33,0,.67,.03,.94,.07l-.87,.12c-.92,.07-1.99,.16-2.75,.31h-.05Zm1.86-3.67c-.41,1.01-1.19,2.59-1.78,3.6,.76-.14,1.81-.23,2.71-.3l.87-.06c-.27,0-.62-.02-.94-.05-.62-.03-1.27-.06-1.76-.2,.08-.61,.36-1.37,.59-2.08l.3-.91h0Z"/>
          <path class="cls-2" d="M150.65,84.14s2.47-2.14,2.47-2.14l-2.81,1.5-.27,.64h.6Z"/>
          <path d="M150,84.18l.29-.68,2.81-1.51c-.81,.75-2.39,2.11-2.43,2.16l-.68,.03h0Zm3.09-2.19l-2.76,1.54-.25,.6,.57-.02s.25-.23,2.44-2.12h0Z"/>
          <path class="cls-2" d="M153.12,83.79c-1.04,.22-2.64,.49-3.63,.8,.49-1.05,1.09-2.74,1.47-3.78-.18,.93-.53,2.19-.6,3.02,.79,.11,1.92-.04,2.76-.04h0Z"/>
          <path d="M149.46,84.63l.02-.06c.45-.96,1.01-2.5,1.38-3.55v.04c-.39,1.22-.9,2.57-1.31,3.49,.74-.24,1.83-.45,2.75-.62l.81-.17c-.28,.06-.6,.06-.93,.08-.63,.04-1.29,.08-1.81,0,.03-.62,.22-1.43,.38-2.21l.09-.36-.04,.38c-.16,.75-.37,1.56-.4,2.16,.46,0,1.16,0,1.78-.04,.33,0,.65-.03,.95-.03l-.81,.19c-.95,.19-2.05,.42-2.8,.66h-.05Z"/>
          <path class="cls-2" d="M150.25,84.24s1.56-2.91,1.56-2.91l-2.13,2.52-.02,.65,.59-.27Z"/>
          <path d="M149.63,84.55l.03-.71,2.15-2.53c-.5,1-1.53,2.86-1.54,2.94l-.63,.29h0Zm2.17-3.23l-2.1,2.55-.03,.61,.55-.27s.14-.29,1.58-2.9h0Z"/>
          <path class="cls-2" d="M153.12,83.96c-1.12,.28-2.83,.66-3.89,1.04,.4-1.17,.88-3.11,1.14-4.28-.08,1.04-.31,2.46-.26,3.38,.84,.08,2.09-.11,3.01-.15h0Z"/>
          <path d="M149.2,85.05l.02-.05c.41-1.19,.86-3.11,1.14-4.28l-.05,.98c-.11,.82-.21,1.75-.17,2.4,.11,0,.28,0,.43,0,.47,0,1-.05,1.52-.09,.37-.05,.7-.07,1.04-.08l-.93,.27c-.99,.26-2.14,.53-2.95,.82l-.04,.03h0Zm1.16-4.32c-.23,1.17-.69,3.05-1.09,4.24,.79-.27,1.92-.56,2.91-.81l.92-.22c-.3,.04-.65,.08-1.02,.12-.69,.06-1.41,.12-1.99,.07-.04-.68,.06-1.6,.17-2.43l.1-.98h0Z"/>
          <path class="cls-2" d="M149.94,84.92s1.97-2.92,1.97-2.92l-2.54,2.36-.1,.74,.67-.18Z"/>
          <path d="M149.24,85.13l.12-.77,2.53-2.39c-.49,.82-1.89,2.87-1.92,2.96l-.72,.2h0Zm2.65-3.14l-2.49,2.39-.08,.7,.61-.18s.19-.33,1.96-2.91h0Z"/>
          <path class="cls-2" d="M152.68,84.29c-1.09,.34-2.78,.8-3.8,1.26,.35-1.2,.72-3.12,.93-4.31-.05,1.04-.21,2.44-.12,3.35,.86,.05,2.08-.22,2.99-.3h0Z"/>
          <path d="M148.84,85.58l.02-.04c.35-1.22,.72-3.12,.93-4.31v1c-.06,.5-.1,1.04-.1,1.52-.03-.5,0-1.02,.04-1.52l.06-1c-.17,1.18-.55,3.05-.88,4.26,.75-.33,1.87-.66,2.82-.95l.93-.28c-.28,.08-.63,.14-.98,.18-.62,.1-1.26,.18-1.8,.18,0,0-.02-.02-.02-.04,.64-.03,1.23-.1,1.8-.18,.37-.06,.7-.12,1.02-.15l-.94,.33c-.97,.3-2.09,.63-2.84,.97l-.06,.02h0Z"/>
          <path class="cls-2" d="M149.53,85.36s1.5-3.24,1.5-3.24l-2.14,2.78,.02,.75,.62-.28Z"/>
          <path d="M148.89,85.68l-.02-.79,2.14-2.78c-.37,.89-1.44,3.15-1.46,3.24l-.67,.32h0Zm2.13-3.56l-2.09,2.8v.69l.61-.27s.11-.33,1.48-3.22h0Z"/>
          <path class="cls-2" d="M152.28,84.72c-1.13,.27-2.87,.59-3.9,.94,.43-1.17,.98-3.04,1.3-4.21-.13,1.03-.42,2.43-.42,3.34,.86,.1,2.09-.06,3.02-.07h0Z"/>
          <path d="M148.32,85.7l.02-.05c.45-1.15,.97-3,1.3-4.17h0c-.28,1.22-.81,3.01-1.24,4.13,.8-.25,1.91-.49,2.9-.7l.96-.22c-.31,.06-.66,.08-1.03,.09-.69,.05-1.41,.1-1.98,.02-.02-.67,.12-1.58,.27-2.41l.11-.82-.08,.82c-.13,.84-.28,1.74-.28,2.39,.51,0,1.27,0,1.96-.04,.35-.03,.72-.06,1.04-.06l-.98,.25c-.99,.2-2.13,.47-2.92,.73l-.05,.02h0Z"/>
          <path class="cls-2" d="M149.18,85.66s2.46-2.53,2.46-2.53l-2.91,1.87-.23,.72,.68-.06Z"/>
          <path d="M148.48,85.74l.25-.74,2.9-1.89c-.64,.72-2.38,2.49-2.42,2.56l-.72,.07h0Zm3.14-2.63l-2.89,1.91-.19,.68,.64-.05s.25-.28,2.44-2.53h0Z"/>
          <path class="cls-2" d="M151.77,85.15c-1.1,.17-2.82,.31-3.87,.59,.52-1.15,1.16-3.01,1.56-4.16-.22,1.03-.57,2.44-.63,3.36,.83,.19,2.05,.15,2.94,.21h0Z"/>
          <path d="M147.86,85.76l.04-.04c.47-1.07,1.07-2.79,1.47-3.94v.03c-.41,1.32-.97,2.88-1.42,3.88,.79-.19,1.91-.33,2.9-.46l.92-.11c-.29,.02-.63,.02-.99,0-.68-.03-1.38-.05-1.93-.17,0-.71,.22-1.65,.41-2.5l.08-.41-.05,.43c-.18,.84-.38,1.78-.44,2.46,.54,.11,1.26,.14,1.92,.15,.36,.02,.7,.02,1.01,.05l-.93,.17c-.99,.13-2.14,.26-2.93,.44l-.05,.02h0Z"/>
          <path class="cls-2" d="M148.69,85.41s1.68-3.17,1.68-3.17l-2.25,2.68-.06,.74,.63-.25Z"/>
          <path d="M148.04,85.7l.04-.78,2.27-2.68c-.42,.88-1.61,3.1-1.62,3.18l-.69,.28h0Zm2.31-3.46l-2.24,2.68-.02,.7,.58-.22s.16-.35,1.68-3.16h0Z"/>
          <path class="cls-2" d="M151.91,84.78c-1.21,.49-3.07,1.18-4.21,1.78,.38-1.43,.78-3.67,1.01-5.06-.06,1.21-.2,2.86-.09,3.91,.94-.05,2.28-.45,3.29-.63h0Z"/>
          <path d="M147.66,86.61l.02-.06c.38-1.43,.76-3.67,1.01-5.07l-.02,1.13c-.06,.97-.11,2.03-.06,2.8,.61-.05,1.4-.23,2.14-.39,.41-.1,.8-.18,1.15-.26l-1.03,.46c-1.07,.42-2.32,.91-3.16,1.36l-.06,.04h0Zm1.03-5.11c-.2,1.37-.58,3.58-.93,5.02,.82-.44,2.05-.92,3.11-1.36l1.03-.4c-.32,.11-.7,.2-1.11,.29-.75,.17-1.56,.36-2.16,.38-.11-.79-.04-1.85,0-2.82l.07-1.12h0Z"/>
          <path class="cls-2" d="M148.48,86.36s1.99-3.62,1.99-3.62l-2.65,3.08-.06,.83,.72-.29Z"/>
          <path d="M147.72,86.7l.08-.9,2.65-3.08c-.64,1.24-1.94,3.56-1.96,3.65l-.77,.33h0Zm2.73-3.97l-2.61,3.1-.06,.8,.67-.28s.17-.34,2.01-3.61h0Z"/>
          <path class="cls-2" d="M151.44,85.23c-1.17,.56-3.01,1.33-4.11,2,.3-1.43,.6-3.68,.78-5.05,.02,1.18-.09,2.82,.06,3.86,.96-.08,2.28-.58,3.27-.81h0Z"/>
          <path d="M147.3,87.27l.02-.05c.3-1.4,.59-3.63,.76-4.99h.02c-.14,1.41-.43,3.56-.72,4.95,.82-.5,2.04-1.05,3.1-1.51l.97-.44c-.34,.11-.72,.23-1.11,.34-.73,.22-1.54,.45-2.14,.49-.13-.76-.13-1.81-.11-2.8l.02-.93,.04,.93c-.02,.99-.02,2.04,.07,2.79,.59-.08,1.37-.3,2.13-.53,.38-.11,.77-.21,1.11-.28l-.95,.48c-1.07,.49-2.32,1.05-3.15,1.54l-.04,.03h0Z"/>
          <path class="cls-2" d="M148.06,86.92s1.46-3.91,1.46-3.91l-2.2,3.49,.06,.85,.69-.43Z"/>
          <path d="M147.35,87.38l-.05-.89,2.2-3.49c-.47,1.32-1.4,3.82-1.42,3.91l-.72,.47h0Zm2.15-4.38l-2.16,3.5,.07,.8,.63-.41s.1-.33,1.46-3.89h0Z"/>
          <path class="cls-2" d="M150.93,85.56c-1.17,.55-3.01,1.36-4.1,2.02,.3-1.44,.57-3.66,.73-5.06,.03,1.19-.05,2.83,.09,3.87,.95-.09,2.28-.6,3.27-.83h0Z"/>
          <path d="M146.8,87.61l.02-.05c.28-1.42,.57-3.67,.73-5.04l.05,1.17c0,.95,0,1.96,.08,2.69,.61-.09,1.39-.33,2.13-.55,.39-.11,.78-.23,1.13-.3l-.93,.5c-1.07,.49-2.34,1.05-3.15,1.57h-.05Zm.75-5.08c-.12,1.37-.38,3.56-.69,5,.82-.49,2.06-1.05,3.1-1.56l.95-.43c-.31,.12-.7,.24-1.09,.35-.75,.23-1.54,.46-2.16,.52-.13-.74-.13-1.76-.11-2.71v-1.17h0Z"/>
          <path class="cls-2" d="M147.72,87.38s2.28-3.45,2.28-3.45l-2.86,2.8-.14,.86,.72-.22Z"/>
          <path d="M146.97,87.63l.14-.89,2.88-2.81c-.74,1.17-2.19,3.36-2.23,3.45l-.79,.25h0Zm3-3.7l-2.81,2.84-.13,.8,.68-.21s.2-.34,2.26-3.43h0Z"/>
          <path class="cls-2" d="M150.82,85.37c-1.04,.84-2.68,2.07-3.65,2.98,0-1.43-.18-3.65-.3-5,.27,1.12,.52,2.71,.89,3.67,.92-.33,2.13-1.15,3.06-1.64h0Z"/>
          <path d="M147.15,88.4v-.05c0-1.31-.15-3.27-.27-4.65l.02,.04c.17,1.59,.29,3.35,.29,4.56,.71-.69,1.81-1.53,2.73-2.25l.87-.69c-.28,.2-.64,.41-1.01,.61-.68,.41-1.41,.82-2.02,1.04-.3-.69-.52-1.7-.7-2.64l-.07-.36,.12,.35c.19,.93,.4,1.93,.67,2.63,.55-.23,1.28-.66,1.97-1.04,.38-.22,.72-.43,1.04-.59l-.83,.72c-.95,.74-2.06,1.6-2.78,2.29l-.04,.03h0Z"/>
          <path class="cls-2" d="M147.84,87.54s.27-4.12,.27-4.12l-1.09,4.02,.29,.75,.52-.65Z"/>
          <path d="M147.3,88.22l-.31-.77,1.09-4.03c-.04,1.13-.22,4.03-.22,4.11l-.56,.69h0Zm.78-4.8l-1.04,4.02,.27,.7,.5-.61s-.02-.27,.26-4.11h0Z"/>
          <path class="cls-2" d="M150.51,85.74c-1.04,.83-2.69,2.06-3.65,2.96,.02-1.42-.17-3.63-.28-5,.26,1.14,.52,2.71,.87,3.67,.93-.33,2.14-1.14,3.06-1.62h0Z"/>
          <path d="M146.85,88.78v-.07c.02-1.38-.16-3.48-.27-4.86v.03c.15,1.48,.32,3.45,.32,4.78,.7-.66,1.75-1.48,2.68-2.18l.94-.73c-.29,.21-.65,.39-1,.61-.71,.39-1.44,.82-2.04,1.04-.28-.69-.49-1.68-.67-2.6l-.16-.68,.19,.68c.18,.92,.38,1.9,.65,2.57,.57-.23,1.3-.65,1.99-1.05,.37-.21,.72-.39,1.04-.56l-.9,.75c-.94,.73-2.03,1.57-2.73,2.24l-.04,.05h0Z"/>
          <path class="cls-2" d="M147.57,88.24s1.04-4.03,1.04-4.03l-1.81,3.71,.15,.82,.62-.5Z"/>
          <path d="M146.94,88.8l-.16-.87,1.83-3.73c-.33,1.37-1.02,3.96-1.02,4.04l-.66,.56h0Zm1.68-4.6l-1.8,3.73,.15,.77,.59-.48s.06-.36,1.06-4.02h0Z"/>
          <path class="cls-2" d="M150.41,85.86c-1,.96-2.56,2.43-3.45,3.46-.15-1.48-.59-3.72-.85-5.12,.38,1.13,.83,2.73,1.31,3.67,.9-.43,2.07-1.39,2.99-2.01h0Z"/>
          <path d="M146.95,89.38v-.05c-.15-1.43-.57-3.6-.83-4.99v.02c.34,1.47,.72,3.51,.87,4.91,.65-.78,1.67-1.76,2.57-2.62l.84-.81c-.29,.24-.63,.49-1,.75-.67,.5-1.37,1.01-1.96,1.3-.36-.68-.71-1.68-.98-2.59l-.24-.74,.27,.73c.29,.9,.61,1.92,.94,2.57,.58-.29,1.27-.81,1.94-1.3,.35-.26,.71-.5,1.02-.71l-.82,.85c-.91,.87-1.94,1.87-2.59,2.64l-.04,.05h0Z"/>
          <path class="cls-2" d="M147.59,88.76s.18-4.29,.18-4.29l-1.06,4.17,.35,.78,.53-.66Z"/>
          <path d="M147.04,89.46l-.34-.82,1.05-4.18c-.04,1.46-.17,4.2-.16,4.3l-.56,.71h0Zm.72-4.99l-1.03,4.17,.33,.74,.49-.64s0-.39,.2-4.27h0Z"/>
          <path class="cls-2" d="M150.1,86.56c-1.07,.89-2.75,2.17-3.68,3.12-.05-1.49-.29-3.78-.43-5.2,.27,1.16,.6,2.81,.98,3.8,.93-.37,2.18-1.2,3.13-1.73h0Z"/>
          <path d="M146.38,89.75v-.06c-.02-1.49-.27-3.78-.43-5.2l.31,1.12c.23,.95,.45,1.96,.74,2.67,.59-.24,1.34-.71,2.04-1.13,.37-.21,.72-.44,1.04-.59l-.88,.76c-.96,.77-2.06,1.68-2.77,2.37l-.06,.06h0Zm-.43-5.26c.19,1.39,.43,3.65,.49,5.15,.71-.72,1.79-1.59,2.75-2.36l.9-.72c-.29,.21-.65,.41-1.01,.61-.71,.44-1.48,.91-2.09,1.13-.32-.7-.55-1.74-.77-2.69l-.27-1.12h0Z"/>
          <path class="cls-5" d="M165.01,90.93c0,4.16-3.37,7.53-7.54,7.53s-7.52-3.37-7.52-7.53,3.36-7.52,7.52-7.52,7.54,3.36,7.54,7.52h0Z"/>
          <path class="cls-2" d="M147.25,89.25s1.5-4.03,1.5-4.03l-2.24,3.57,.06,.86,.67-.4Z"/>
          <path d="M146.55,89.71l-.06-.92,2.24-3.58c-.48,1.37-1.43,3.94-1.44,4.04l-.73,.46h0Zm2.17-4.49l-2.19,3.58,.05,.83,.65-.41s.12-.37,1.49-4h0Z"/>
          <path class="cls-2" d="M150.08,86.58c-.93,.99-2.45,2.47-3.26,3.53-.16-1.5-.57-3.77-.82-5.18,.37,1.16,.79,2.76,1.26,3.71,.86-.45,1.95-1.44,2.83-2.06h0Z"/>
          <path d="M146.8,90.17v-.06c-.16-1.42-.54-3.55-.79-4.98l.02,.04c.32,1.58,.67,3.53,.81,4.9,.61-.82,1.6-1.83,2.44-2.69l.79-.82c-.27,.27-.6,.53-.93,.79-.64,.5-1.31,1.03-1.88,1.31-.35-.69-.67-1.72-.95-2.66l-.17-.55,.24,.53c.27,.95,.58,1.97,.91,2.66,.52-.32,1.19-.83,1.82-1.34,.34-.27,.67-.52,.97-.74l-.75,.84c-.85,.89-1.86,1.92-2.47,2.73l-.04,.04h0Z"/>
          <path class="cls-2" d="M147.31,89.45s-.17-4.26-.17-4.26l-.69,4.25,.39,.73,.48-.72Z"/>
          <path d="M146.84,90.23l-.4-.78,.69-4.26c.09,1.43,.19,4.17,.21,4.25l-.49,.79h0Zm.28-5.04l-.63,4.25,.36,.7,.45-.7s-.05-.39-.17-4.25h0Z"/>
          <path class="cls-2" d="M149.62,86.91c-.91,1-2.36,2.47-3.14,3.56-.19-1.5-.68-3.78-.97-5.2,.41,1.16,.86,2.79,1.35,3.72,.85-.46,1.92-1.47,2.77-2.08h0Z"/>
          <path d="M146.45,90.52v-.06c-.2-1.48-.68-3.75-.97-5.15v.02c.35,1.41,.8,3.59,1.01,5.07,.6-.79,1.55-1.82,2.35-2.7l.76-.81c-.26,.24-.57,.49-.89,.75-.61,.51-1.28,1.04-1.84,1.36-.38-.68-.72-1.68-1.02-2.6l-.33-.98,.38,.95c.3,.93,.64,1.93,.97,2.59,.54-.3,1.19-.85,1.81-1.35,.34-.27,.64-.52,.93-.72l-.71,.84c-.83,.91-1.81,1.92-2.4,2.74l-.04,.05h0Z"/>
          <path class="cls-2" d="M147.09,89.87s.47-4.33,.47-4.33l-1.27,4.1,.27,.84,.53-.61Z"/>
          <path d="M146.54,90.54l-.27-.9,1.27-4.1c-.13,1.47-.43,4.23-.43,4.32l-.57,.68h0Zm1-4.99l-1.24,4.1,.26,.8,.52-.58s0-.38,.46-4.32h0Z"/>
          <path class="cls-2" d="M149.41,87.07c-.82,1.08-2.16,2.7-2.86,3.84-.3-1.47-.96-3.68-1.37-5.05,.49,1.09,1.07,2.67,1.63,3.55,.82-.54,1.8-1.64,2.59-2.34h0Z"/>
          <path d="M146.55,90.98l-.02-.05c-.32-1.43-.94-3.57-1.35-4.95l.02,.03c.45,1.43,1.05,3.46,1.36,4.85,.54-.83,1.41-1.94,2.14-2.9l.69-.9c-.23,.27-.52,.55-.82,.84-.59,.57-1.21,1.17-1.74,1.52-.44-.63-.84-1.63-1.25-2.53l-.29-.72,.35,.7c.38,.91,.79,1.91,1.19,2.53,.49-.36,1.14-.96,1.72-1.53,.27-.29,.59-.57,.85-.81l-.68,.92c-.76,.98-1.63,2.11-2.17,2.95v.05h0Z"/>
          <path class="cls-2" d="M147.08,90.28s-.29-4.32-.29-4.32l-.53,4.29,.38,.76,.45-.72Z"/>
          <path d="M146.63,91.05l-.41-.81,.55-4.29c.14,1.45,.31,4.23,.32,4.32l-.46,.77h0Zm.14-5.09l-.5,4.29,.37,.71,.41-.67s-.05-.41-.27-4.32h0Z"/>
          <path class="cls-2" d="M149.34,87.32c-.78,1.13-2.04,2.83-2.69,4.02-.38-1.48-1.14-3.67-1.61-5.01,.54,1.07,1.22,2.61,1.81,3.47,.8-.59,1.74-1.74,2.5-2.48h0Z"/>
          <path d="M146.63,91.41l-.02-.05c-.33-1.33-1-3.27-1.48-4.65l-.11-.38,.52,.99c.45,.89,.9,1.85,1.33,2.47,.47-.4,1.05-1.02,1.62-1.62,.28-.31,.58-.6,.83-.87l-.61,.97c-.72,1.01-1.54,2.19-2.04,3.08l-.04,.05h0Zm-1.61-5.08l.16,.38c.48,1.35,1.13,3.25,1.48,4.56,.5-.88,1.33-2.02,2.01-3.03l.66-.93c-.22,.29-.5,.59-.79,.9-.55,.61-1.15,1.23-1.68,1.62-.47-.63-.92-1.6-1.35-2.48l-.49-1.02h0Z"/>
          <path class="cls-2" d="M147.33,90.68s.44-4.35,.44-4.35l-1.24,4.1,.27,.84,.53-.59Z"/>
          <path d="M146.78,91.32l-.27-.89,1.24-4.11c-.12,1.48-.4,4.26-.4,4.35l-.57,.64h0Zm.97-4.99l-1.2,4.11,.25,.8,.51-.55s0-.38,.44-4.35h0Z"/>
          <path class="cls-2" d="M149.18,87.73c-.68,1.23-1.76,3.08-2.32,4.38-.5-1.42-1.47-3.51-2.05-4.77,.63,.98,1.44,2.43,2.11,3.22,.73-.7,1.57-1.98,2.26-2.82h0Z"/>
          <path d="M146.87,92.17l-.03-.06c-.49-1.4-1.44-3.45-2.03-4.73h0c.63,1.28,1.55,3.28,2.05,4.65,.4-.93,1.11-2.16,1.7-3.23l.6-1.1c-.2,.33-.46,.64-.71,1-.5,.68-1.04,1.4-1.52,1.87-.5-.55-1.04-1.44-1.54-2.25l-.54-.83,.57,.81c.5,.82,1.04,1.69,1.51,2.25,.45-.46,.98-1.18,1.48-1.87,.25-.33,.5-.67,.74-.96l-.57,1.12c-.61,1.11-1.31,2.36-1.71,3.29l-.02,.06h0Z"/>
          <polygon class="cls-2" points="147.17 91.05 145.97 86.92 146.38 91.27 146.94 91.88 147.17 91.05"/>
          <path d="M146.94,91.94l-.58-.66-.41-4.36c.43,1.38,1.2,4.03,1.25,4.11l-.26,.91h0Zm-.99-5.02l.45,4.35,.52,.55,.23-.77s-.11-.34-1.2-4.13h0Z"/>
          <path class="cls-2" d="M149.17,88.21c-.71,1.23-1.85,3.08-2.44,4.35-.49-1.37-1.47-3.46-2.07-4.75,.65,.99,1.47,2.43,2.16,3.21,.75-.69,1.6-1.96,2.35-2.81h0Z"/>
          <path d="M146.73,92.63l-.02-.05c-.49-1.38-1.47-3.46-2.07-4.75l.64,.92c.5,.82,1.07,1.71,1.56,2.26,.45-.45,.98-1.15,1.5-1.81,.27-.36,.55-.71,.81-1l-.59,1.1c-.64,1.09-1.37,2.36-1.8,3.28l-.04,.05h0Zm-2.09-4.8c.64,1.25,1.59,3.3,2.09,4.68,.44-.93,1.16-2.17,1.78-3.23l.64-1.08c-.22,.33-.51,.68-.77,1.03-.52,.68-1.06,1.37-1.54,1.81-.54-.56-1.07-1.44-1.61-2.26l-.59-.94h0Z"/>
          <path class="cls-2" d="M147.23,91.82s-.45-4.33-.45-4.33l-.4,4.33,.44,.74,.41-.74Z"/>
          <path d="M146.82,92.61l-.46-.79,.4-4.33c.18,1.46,.45,4.25,.49,4.32l-.43,.81h0Zm-.06-5.12l-.35,4.33,.4,.72,.39-.72s-.06-.37-.45-4.33h0Z"/>
          <path class="cls-2" d="M149.22,88.59c-.72,1.21-1.89,3.05-2.49,4.3-.48-1.41-1.42-3.5-1.99-4.79,.64,1.01,1.42,2.47,2.1,3.25,.76-.66,1.65-1.93,2.38-2.76h0Z"/>
          <path d="M146.73,92.94l-.02-.04c-.46-1.39-1.41-3.51-1.99-4.79h0c.62,1.27,1.53,3.31,2.01,4.72,.47-.97,1.26-2.25,1.92-3.35l.55-.9c-.21,.32-.49,.65-.78,1.02-.52,.64-1.07,1.33-1.58,1.76-.49-.57-1.05-1.45-1.54-2.28l-.57-.93,.61,.91c.5,.82,1.03,1.72,1.52,2.28,.45-.43,1.01-1.12,1.52-1.77,.28-.36,.56-.69,.82-.98l-.49,.92c-.69,1.11-1.49,2.44-1.94,3.41l-.04,.04h0Z"/>
          <path class="cls-2" d="M147.19,92.18s-.81-4.27-.81-4.27l-.02,4.37,.48,.69,.35-.79Z"/>
          <path d="M146.85,93.01l-.51-.72,.03-4.38c.32,1.43,.82,4.18,.85,4.26l-.37,.84h0Zm-.49-5.1v4.37l.48,.63,.33-.74s-.08-.37-.81-4.26h0Z"/>
          <path class="cls-2" d="M148.91,89.2c-.77,1.16-2.03,2.91-2.68,4.11-.42-1.43-1.26-3.58-1.77-4.91,.59,1.04,1.3,2.55,1.93,3.39,.8-.61,1.76-1.81,2.51-2.59h0Z"/>
          <path d="M146.22,93.38v-.05c-.4-1.36-1.16-3.37-1.7-4.73l.02,.05c.62,1.48,1.31,3.33,1.71,4.62,.48-.91,1.28-2.08,1.99-3.12l.65-.96c-.22,.29-.5,.61-.78,.93-.58,.62-1.16,1.28-1.7,1.68-.49-.59-.99-1.56-1.46-2.42l-.25-.48,.3,.45c.47,.88,.95,1.83,1.4,2.41,.5-.41,1.09-1.05,1.64-1.67,.28-.33,.58-.65,.83-.93l-.62,1.02c-.72,1.03-1.54,2.24-2.02,3.14l-.04,.05h0Z"/>
          <path class="cls-2" d="M146.82,92.64s.35-4.35,.35-4.35l-1.17,4.12,.28,.85,.54-.62Z"/>
          <path d="M146.28,93.3l-.29-.88,1.16-4.13c-.07,1.46-.31,4.25-.31,4.35l-.56,.66h0Zm.87-5.01l-1.14,4.13,.27,.79,.52-.58s0-.39,.35-4.34h0Z"/>
          <path class="cls-2" d="M148.96,89.3c-.66,1.27-1.75,3.17-2.28,4.47-.56-1.38-1.6-3.41-2.22-4.66,.68,.96,1.53,2.36,2.25,3.11,.72-.71,1.56-2.03,2.25-2.92h0Z"/>
          <path d="M146.68,93.84l-.04-.05c-.5-1.29-1.42-3.12-2.06-4.38l.02,.03c.78,1.43,1.59,3.1,2.08,4.28,.4-.96,1.07-2.21,1.66-3.29l.61-1.14c-.21,.35-.46,.69-.71,1.05-.5,.69-1.03,1.42-1.53,1.91-.53-.52-1.1-1.38-1.62-2.17l-.25-.38,.28,.35c.52,.78,1.09,1.64,1.6,2.17,.44-.48,.97-1.22,1.48-1.92,.26-.36,.5-.69,.74-1.01l-.56,1.16c-.6,1.11-1.28,2.39-1.68,3.34l-.03,.05h0Z"/>
          <path class="cls-2" d="M146.68,93.01s-1.36-4.06-1.36-4.06l.52,4.32,.59,.59,.25-.84Z"/>
          <path d="M146.43,93.89l-.61-.61-.52-4.33c.49,1.36,1.34,3.96,1.39,4.04l-.27,.9h0Zm-1.13-4.94l.56,4.32,.55,.54,.23-.82s-.13-.29-1.34-4.04h0Z"/>
          <path class="cls-2" d="M148.79,89.64c-.47,1.38-1.26,3.49-1.6,4.88-.74-1.24-2.07-3.01-2.87-4.1,.8,.78,1.85,1.98,2.68,2.57,.61-.88,1.22-2.35,1.79-3.35h0Z"/>
          <path d="M147.21,94.58l-.03-.05c-.69-1.11-1.82-2.67-2.63-3.76l-.25-.33,.78,.75c.66,.66,1.35,1.37,1.93,1.78,.35-.56,.75-1.37,1.14-2.15,.22-.42,.42-.83,.6-1.17l-.33,1.11c-.43,1.24-.93,2.71-1.19,3.78l-.02,.05h0Zm-2.91-4.14l.27,.31c.82,1.07,1.93,2.59,2.61,3.7,.26-1.04,.76-2.49,1.19-3.73l.37-1.08c-.14,.38-.35,.78-.55,1.2-.39,.8-.78,1.6-1.18,2.15-.62-.4-1.31-1.12-1.96-1.79l-.75-.77h0Z"/>
          <path class="cls-2" d="M147.87,93.34s-1.46-4-1.46-4l.64,4.3,.58,.57,.24-.86Z"/>
          <path d="M147.65,94.25l-.61-.61-.64-4.31c.52,1.35,1.44,3.93,1.49,3.98l-.24,.93h0Zm-1.26-4.91l.68,4.3,.56,.51,.22-.82s-.16-.3-1.46-4h0Z"/>
          <path class="cls-2" d="M148.77,90.07c-.45,1.38-1.22,3.5-1.54,4.88-.76-1.23-2.11-2.98-2.92-4.06,.82,.79,1.89,1.95,2.71,2.53,.6-.87,1.2-2.36,1.75-3.35h0Z"/>
          <path d="M147.23,95.02l-.02-.06c-.76-1.21-2.09-2.97-2.92-4.05l.82,.74c.66,.65,1.35,1.35,1.92,1.77,.37-.58,.77-1.41,1.15-2.21,.21-.41,.39-.82,.57-1.16l-.35,1.2c-.41,1.25-.9,2.68-1.14,3.71l-.02,.06h0Zm-2.94-4.11c.85,1.05,2.16,2.78,2.92,3.99,.26-1.04,.72-2.44,1.13-3.66l.39-1.19c-.12,.38-.31,.77-.53,1.17-.37,.81-.78,1.64-1.18,2.23-.61-.39-1.29-1.11-1.94-1.76l-.79-.78h0Z"/>
          <path class="cls-2" d="M147.87,94.02s-1.88-3.74-1.88-3.74l1.11,4.16,.65,.46,.12-.88Z"/>
          <path d="M147.77,94.94l-.69-.49-1.09-4.16c.65,1.25,1.84,3.65,1.9,3.72l-.12,.93h0Zm-1.78-4.66l1.13,4.15,.61,.42,.12-.84s-.17-.26-1.86-3.73h0Z"/>
          <path class="cls-2" d="M148.62,90.4c-.27,1.45-.8,3.66-.95,5.09-.9-1.12-2.42-2.65-3.35-3.61,.9,.67,2.09,1.68,2.96,2.13,.5-.95,.93-2.5,1.35-3.6h0Z"/>
          <path d="M147.68,95.54l-.05-.05c-.8-1-2.1-2.35-3.05-3.3l-.29-.31,.85,.61c.74,.56,1.5,1.17,2.13,1.49,.32-.61,.6-1.49,.89-2.33,.17-.45,.3-.89,.46-1.26l-.23,1.25c-.26,1.27-.59,2.8-.71,3.85v.06h0Zm-3.39-3.65l.33,.27c.92,.95,2.22,2.28,3.01,3.25,.14-1.05,.44-2.51,.71-3.78l.27-1.24c-.11,.38-.26,.82-.41,1.26-.28,.84-.59,1.72-.92,2.36-.66-.3-1.44-.93-2.16-1.48l-.83-.64h0Z"/>
          <path class="cls-2" d="M147.99,94.6s-.99-4.18-.99-4.18l.15,4.36,.53,.63,.31-.82Z"/>
          <path d="M147.68,95.48l-.54-.7-.17-4.36c.37,1.4,1.01,4.11,1.05,4.18l-.34,.88h0Zm-.72-5.06l.2,4.36,.49,.61,.31-.79s-.12-.35-1.01-4.18h0Z"/>
          <path class="cls-2" d="M148.63,90.86c-.15,1.47-.47,3.74-.48,5.18-1.01-.97-2.66-2.31-3.67-3.13,.95,.54,2.22,1.38,3.12,1.7,.42-1,.71-2.59,1.02-3.74h0Z"/>
          <path d="M148.17,96.1l-.04-.05c-.94-.92-2.48-2.19-3.51-3.01h.04c1.16,.89,2.56,2.05,3.47,2.94,.03-1.1,.19-2.65,.36-3.96l.13-1.18c-.07,.42-.17,.87-.29,1.35-.19,.85-.42,1.77-.69,2.43-.69-.23-1.53-.74-2.31-1.2l-.41-.24,.45,.19c.75,.46,1.62,.97,2.27,1.21,.24-.65,.44-1.56,.65-2.42,.1-.45,.22-.93,.33-1.32l-.09,1.18c-.15,1.35-.34,2.91-.36,4v.06h0Z"/>
          <path class="cls-2" d="M148.04,94.93s-2.64-3.04-2.64-3.04l1.99,3.67,.74,.25-.09-.87Z"/>
          <path d="M148.16,95.83l-.77-.26-2.03-3.68c.93,1.01,2.63,2.95,2.69,3.01l.1,.93h0Zm-2.78-3.93l2.04,3.64,.69,.24-.09-.85h0s-.22-.21-2.64-3.02h0Z"/>
          <path class="cls-2" d="M148.69,91.37c-.17,1.47-.49,3.73-.5,5.19-.99-.99-2.65-2.34-3.67-3.18,.96,.55,2.23,1.4,3.13,1.74,.42-1.02,.72-2.62,1.04-3.75h0Z"/>
          <path d="M148.2,96.58h-.04c-.94-.95-2.47-2.22-3.49-3.05l.04,.02c1.15,.9,2.56,2.06,3.45,2.94,.03-1.06,.2-2.53,.35-3.82l.15-1.3c-.04,.38-.17,.82-.27,1.29-.2,.87-.41,1.79-.71,2.47-.68-.24-1.52-.74-2.3-1.22l-.4-.24,.43,.19c.77,.48,1.61,.99,2.25,1.23,.24-.66,.48-1.58,.68-2.46,.1-.45,.22-.91,.31-1.29l-.09,1.33c-.16,1.32-.34,2.8-.36,3.88v.03h0Z"/>
          <path class="cls-2" d="M148.34,95.62s-2.04-3.65-2.04-3.65l1.29,4.09,.66,.45,.09-.89Z"/>
          <path d="M148.27,96.56l-.7-.46-1.29-4.12c.59,.96,2.01,3.56,2.08,3.63l-.09,.95h0Zm-1.99-4.57l1.32,4.08,.64,.41,.08-.85s-.18-.27-2.04-3.64h0Z"/>
          <path class="cls-2" d="M148.81,91.99c-.08,1.48-.32,3.77-.28,5.2-1.02-.93-2.75-2.17-3.78-2.94,.97,.49,2.28,1.26,3.2,1.53,.39-1.03,.61-2.65,.87-3.79h0Z"/>
          <path d="M148.56,97.24l-.06-.05c-.97-.84-2.56-2.02-3.59-2.79h.04c1.17,.84,2.64,1.92,3.54,2.74,0-1.07,.11-2.58,.2-3.9l.1-1.25c-.06,.39-.16,.85-.23,1.32-.17,.9-.36,1.8-.59,2.49-.71-.18-1.56-.64-2.35-1.06l-.4-.21,.42,.16c.79,.41,1.64,.88,2.31,1.07,.2-.66,.38-1.57,.57-2.47,.09-.46,.17-.92,.27-1.31l-.06,1.26c-.1,1.35-.21,2.9-.19,3.96l.02,.05h0Z"/>
          <path class="cls-2" d="M148.62,96.29s-2.53-3.2-2.53-3.2l1.83,3.79,.72,.3-.02-.9Z"/>
          <path d="M148.65,97.22l-.75-.3-1.83-3.8c.88,1.04,2.47,3.12,2.55,3.16l.04,.94h0Zm-2.58-4.1l1.87,3.75,.68,.29-.04-.85h0s-.2-.25-2.51-3.19h0Z"/>
          <path class="cls-2" d="M148.84,92.66c-.1,1.48-.29,3.77-.26,5.2-1.03-.91-2.73-2.13-3.8-2.9,.99,.49,2.3,1.26,3.22,1.52,.37-1.05,.59-2.67,.84-3.81h0Z"/>
          <path d="M148.62,97.91l-.04-.04c-1.04-.92-2.75-2.13-3.82-2.91l.93,.44c.81,.42,1.64,.86,2.3,1.04,.21-.67,.39-1.62,.57-2.53,.07-.44,.16-.89,.25-1.27l-.04,1.19c-.08,1.35-.19,2.94-.16,4.02v.06h0Zm-3.84-2.94c1.07,.72,2.75,1.93,3.79,2.85-.02-1.1,.07-2.67,.16-4l.08-1.16c-.04,.38-.12,.82-.19,1.26-.17,.9-.37,1.85-.6,2.56-.7-.17-1.52-.63-2.34-1.04l-.9-.48h0Z"/>
          <path class="cls-2" d="M148.83,96.84s-1.75-3.86-1.75-3.86l.96,4.21,.63,.51,.16-.86Z"/>
          <path d="M148.69,97.76l-.67-.54-.98-4.22c.62,1.27,1.75,3.76,1.8,3.83l-.15,.93h0Zm-1.65-4.76l1.02,4.2,.6,.48,.16-.82s-.17-.3-1.77-3.85h0Z"/>
          <path class="cls-2" d="M148.89,93.09c.06,1.49,.07,3.79,.24,5.22-1.11-.76-2.91-1.76-4.04-2.39,1.03,.36,2.4,.94,3.34,1.09,.27-1.1,.31-2.73,.47-3.92h0Z"/>
          <path d="M149.17,98.36l-.06-.02c-1.05-.73-2.75-1.68-3.87-2.31l.04,.02c1.24,.65,2.83,1.51,3.83,2.22-.14-1.06-.16-2.57-.2-3.9l-.04-1.27c0,.42-.05,.89-.08,1.37-.08,.9-.17,1.85-.35,2.56-.69-.07-1.58-.4-2.41-.71l-.49-.18,.51,.14c.83,.31,1.7,.62,2.37,.72,.16-.68,.23-1.63,.31-2.54,.06-.48,.09-.94,.14-1.36l.09,1.27c.03,1.35,.06,2.9,.2,3.95v.05h0Z"/>
          <path class="cls-2" d="M149.15,96.69s-3.24-2.22-3.24-2.22l2.72,3.01,.78,.06-.27-.84Z"/>
          <path d="M149.44,97.56l-.81-.05-2.74-3.02c.91,.58,3.17,2.15,3.25,2.18l.29,.89h0Zm-3.55-3.07l2.78,2.99,.71,.04-.27-.81h0s-2.02-1.38-3.22-2.22h0Z"/>
          <path class="cls-2" d="M149.01,93.27c.12,1.47,.25,3.77,.5,5.18-1.15-.71-3.02-1.64-4.17-2.22,1.03,.31,2.43,.85,3.38,.96,.22-1.12,.18-2.74,.28-3.92h0Z"/>
          <path d="M149.55,98.5l-.05-.03c-1.07-.69-2.79-1.53-3.96-2.11h.04c1.33,.62,2.89,1.41,3.9,2.05-.18-1.1-.29-2.66-.4-3.99l-.1-1.16c.04,.39,0,.83,0,1.3-.04,.92-.07,1.88-.23,2.62-.7-.05-1.59-.35-2.46-.62l-.38-.13,.4,.07c.85,.28,1.76,.57,2.43,.67,.11-.73,.17-1.7,.18-2.61,.04-.47,.04-.91,.06-1.3l.16,1.16c.09,1.33,.21,2.93,.4,4.01l.02,.06h0Z"/>
          <path class="cls-2" d="M149.48,97.51s-2.68-3.08-2.68-3.08l2.03,3.69,.74,.27-.1-.89Z"/>
          <path d="M149.6,98.43l-.77-.28-2.04-3.7c.92,1.01,2.65,2.99,2.71,3.04l.1,.94h0Zm-2.81-3.99l2.07,3.68,.7,.24-.09-.85h0s-.24-.21-2.68-3.07h0Z"/>
          <path class="cls-2" d="M149.24,93.83c.19,1.48,.42,3.77,.72,5.16-1.17-.64-3.08-1.46-4.25-1.97,1.05,.25,2.46,.7,3.42,.76,.17-1.12,.07-2.76,.11-3.95h0Z"/>
          <path d="M150,99.03l-.06-.02c-1.12-.63-2.89-1.39-4.06-1.91l.03,.02c1.3,.52,2.94,1.23,4.01,1.82-.24-1.11-.41-2.68-.59-4.02l-.12-1.1c.02,.42,.02,.88,.02,1.36,0,.92,0,1.86-.09,2.59-.69,0-1.58-.25-2.42-.48l-.51-.12,.51,.08c.86,.21,1.73,.44,2.4,.49,.07-.72,.07-1.66,.07-2.57,0-.48,0-.93,.02-1.36l.17,1.09c.17,1.37,.35,2.99,.59,4.07l.02,.05h0Z"/>
          <path class="cls-2" d="M150.03,98.02s-3.21-2.26-3.21-2.26l2.71,3.07,.74,.05-.25-.85Z"/>
          <path d="M150.31,98.91l-.78-.06-2.73-3.07c1.1,.74,3.16,2.19,3.23,2.24l.28,.9h0Zm-3.51-3.13l2.75,3.04,.7,.04-.25-.83h0s-1.76-1.21-3.2-2.24h0Z"/>
          <path class="cls-2" d="M149.34,94.45c.29,1.46,.66,3.73,1.05,5.1-1.19-.56-3.14-1.17-4.33-1.57,1.04,.14,2.47,.46,3.43,.43,.08-1.14-.12-2.77-.16-3.97h0Z"/>
          <path d="M150.43,99.58l-.04-.02c-1.15-.51-2.97-1.1-4.18-1.5h.04c1.35,.41,3.01,.95,4.11,1.46-.28-1.04-.58-2.55-.82-3.83l-.24-1.24c.06,.42,.1,.88,.13,1.38,.07,.9,.14,1.84,.07,2.58-.86,0-1.68-.12-2.46-.25l-.5-.08,.52,.04c.76,.13,1.6,.26,2.25,.26,.21-.72,.14-1.65,.07-2.55-.04-.5-.07-.96-.08-1.38l.28,1.21c.23,1.31,.54,2.85,.82,3.89l.02,.03h0Z"/>
          <path class="cls-2" d="M150.38,98.48s-2.66-3.15-2.66-3.15l1.99,3.75,.74,.3-.07-.9Z"/>
          <path d="M150.47,99.41l-.76-.31-2.01-3.75c.92,1.04,2.61,3.07,2.69,3.12l.07,.94h0Zm-2.77-4.06l2.02,3.73,.69,.26-.06-.85h0s-.21-.23-2.65-3.13h0Z"/>
          <path class="cls-2" d="M149.51,94.84c.43,1.43,1,3.65,1.52,4.97-1.25-.37-3.22-.76-4.45-.99,1.07,0,2.53,.13,3.45-.03,0-1.14-.37-2.74-.51-3.95h0Z"/>
          <path d="M151.09,99.86l-.06-.03c-1.23-.38-3.13-.75-4.37-.97h.04c1.27,.19,3.11,.57,4.3,.92-.37-.98-.78-2.43-1.15-3.67l-.35-1.24c.1,.41,.16,.89,.25,1.36,.16,.88,.3,1.82,.3,2.57-.69,.15-1.6,.1-2.46,.07l-.71-.02,.71-.03c.85,.03,1.79,.05,2.44-.06-.03-.72-.18-1.67-.34-2.54-.07-.48-.14-.95-.19-1.37l.4,1.21c.37,1.27,.78,2.76,1.17,3.73l.02,.05h0Z"/>
          <path class="cls-2" d="M150.51,98.49s-3.69-.8-3.69-.8l3.51,1.75,.72-.27-.54-.68Z"/>
          <path d="M150.33,99.45l-3.53-1.74c1.25,.21,3.61,.75,3.71,.75l.56,.71-.74,.28h0Zm-3.53-1.74l3.53,1.71,.72-.27-.55-.65c-.07,0-3.56-.74-3.7-.79h0Z"/>
          <path class="cls-2" d="M149.76,95.3c.42,1.42,.98,3.63,1.5,4.95-1.25-.38-3.23-.77-4.44-1,1.07,0,2.5,.14,3.45-.04-.02-1.13-.35-2.73-.5-3.91h0Z"/>
          <path d="M151.3,100.3l-.05-.03c-1.16-.36-2.97-.72-4.17-.95h.02c1.4,.24,3.03,.58,4.11,.91-.37-1.02-.81-2.49-1.16-3.78l-.34-1.14c.1,.39,.17,.84,.26,1.28,.14,.93,.29,1.89,.29,2.63-.68,.17-1.6,.12-2.46,.08h-.38s.38-.05,.38-.05c.4,.02,.83,.04,1.25,.04h0c.45,0,.85-.02,1.2-.08-.04-.73-.18-1.68-.34-2.59-.06-.46-.14-.92-.2-1.31l.39,1.14c.35,1.29,.78,2.8,1.16,3.8l.02,.05h0Z"/>
          <path class="cls-2" d="M151.14,98.88s-3.55-1.69-3.55-1.69l3.17,2.57,.76-.08-.38-.79Z"/>
          <path d="M150.74,99.77l-3.17-2.58c.97,.42,3.46,1.64,3.56,1.67l.4,.81-.8,.11h0Zm-3.17-2.58l3.19,2.53,.76-.06-.42-.76h0c-.06,0-2.71-1.3-3.53-1.7h0Z"/>
          <path class="cls-2" d="M149.58,95.54c.7,1.3,1.72,3.33,2.51,4.51-1.29-.1-3.3-.02-4.54,.02,1.03-.23,2.47-.42,3.33-.78-.25-1.12-.92-2.61-1.3-3.75h0Z"/>
          <path d="M147.55,100.08v-.02l.05-.02h-.05s-.02,0-.02,0l.97-.18c.87-.17,1.76-.34,2.37-.6-.18-.7-.53-1.59-.85-2.44-.18-.45-.35-.88-.48-1.27l.61,1.04c.61,1.2,1.36,2.58,1.94,3.46-1.27,0-3.13,0-4.37,.05l-.08-.02-.1,.02h0Zm2.01-4.54c.17,.37,.34,.82,.5,1.26,.33,.84,.68,1.74,.85,2.48-.65,.27-1.54,.45-2.41,.61l-.69,.13c1.26-.04,3.06-.08,4.27,0-.6-.84-1.35-2.24-1.95-3.41l-.58-1.07h0Z"/>
          <path class="cls-2" d="M151.69,99.27s-3.69-1.02-3.69-1.02l3.46,1.95,.73-.22-.5-.72Z"/>
          <path d="M151.46,100.22h-.02l-3.45-1.95c1,.23,3.59,.95,3.68,.98l.53,.72-.75,.25h0Zm-3.46-1.95l3.47,1.9,.71-.21-.49-.67s-3.3-.91-3.68-1.02h0Z"/>
          <path class="cls-2" d="M149.96,96.1c.71,1.28,1.73,3.33,2.53,4.49-1.29-.1-3.29,0-4.54,.05,1.02-.23,2.46-.44,3.34-.82-.27-1.11-.95-2.58-1.34-3.72h0Z"/>
          <path d="M147.97,100.65l-.02-.02h.04s-.04-.02-.04-.02h0s.99-.21,.99-.21c.84-.17,1.73-.36,2.34-.6-.18-.72-.56-1.63-.89-2.49-.17-.42-.33-.83-.47-1.21l.69,1.16c.62,1.15,1.32,2.46,1.89,3.31-.41,0-.86,0-1.35,0-1.07,0-2.24,.06-3.1,.08h-.02s-.06,0-.06,0h0Zm1.95-4.55c.19,.35,.34,.77,.52,1.2,.33,.86,.71,1.78,.87,2.52-.64,.28-1.51,.45-2.37,.64l-.72,.14c1.24-.05,3.08-.12,4.27-.05-.59-.81-1.29-2.13-1.92-3.27l-.64-1.18h0Z"/>
          <path class="cls-2" d="M152.14,99.56s-3.42-2.05-3.42-2.05l2.99,2.88h.78l-.35-.82Z"/>
          <path d="M152.52,100.41h-.81l-3.01-2.87c1.17,.66,3.36,1.98,3.45,2.02l.37,.85h0Zm-3.81-2.87l3.02,2.82h.72l-.33-.78h0s-2.16-1.28-3.42-2.04h0Z"/>
          <path class="cls-2" d="M150.25,96.42c.82,1.19,2.03,3.1,2.93,4.18-1.29,.09-3.25,.43-4.45,.64,.98-.38,2.37-.76,3.19-1.26-.36-1.09-1.19-2.49-1.67-3.56h0Z"/>
          <path d="M148.73,101.28v-.04h0l-.03-.02h0l.91-.31c.83-.29,1.7-.59,2.29-.95-.23-.67-.69-1.52-1.09-2.31-.21-.44-.42-.84-.6-1.22l.72,.97c.74,1.09,1.58,2.37,2.24,3.19-1.25,.11-3.13,.45-4.35,.65h-.04l-.06,.04h0Zm1.49-4.85c.21,.36,.41,.76,.63,1.18,.41,.81,.84,1.66,1.08,2.36-.6,.38-1.47,.67-2.3,.96l-.64,.24c1.21-.22,2.98-.53,4.19-.61-.71-.76-1.56-2.05-2.3-3.16l-.66-.98h0Z"/>
          <path class="cls-2" d="M152.4,99.87s-3.69-.1-3.69-.1l3.65,1.09,.65-.4-.61-.59Z"/>
          <path d="M152.37,100.89l-3.68-1.09c.02-.06,2.93,.05,3.59,.05l.04,.04c-.83,.02-3.61-.09-3.61-.09l3.65,1.04,.65-.42-.17-.14,.18,.17-.65,.43h0Z"/>
          <path class="cls-2" d="M154.54,81.94s2.67-.46,2.67-.46l-2.67,.06-.45,.24,.45,.16Z"/>
          <path d="M154.54,81.95l-.45-.14,.45-.28,2.67-.06s-2.59,.48-2.67,.49h0Zm2.67-.49l-2.67,.1-.43,.25,.43,.11c.1-.04,.58-.11,2.67-.46h0Z"/>
          <path class="cls-2" d="M156,82.5c-.77-.22-1.92-.61-2.72-.8,.83-.33,2.08-.93,2.86-1.28-.61,.36-1.46,.83-1.91,1.2,.43,.3,1.24,.61,1.77,.88h0Z"/>
          <path d="M156,82.52l-.72-.23c-.67-.19-1.45-.44-2.01-.57,.83-.37,2.07-.97,2.84-1.33h0c-.77,.41-2.01,1-2.84,1.33,.58,.09,1.35,.33,2.02,.55l.38,.11-.29-.14c-.43-.19-.88-.39-1.18-.61,.33-.3,.85-.61,1.36-.91l.53-.34-.52,.38c-.48,.29-1.02,.61-1.33,.87,.27,.17,.73,.36,1.16,.56l.61,.28-.02,.04h0Z"/>
          <path class="cls-2" d="M154.43,82.02s2.58-.69,2.58-.69l-2.68,.32-.39,.29,.49,.07Z"/>
          <path d="M154.43,82.03l-.5-.08,.4-.31,2.68-.34s-2.49,.7-2.57,.73h-.02Zm2.58-.73l-2.68,.38-.39,.27,.49,.05c.1-.03,.52-.15,2.58-.7h0Z"/>
          <path class="cls-2" d="M156.14,82.68c-.91-.08-2.3-.26-3.18-.27,.67-.59,1.6-1.58,2.17-2.2-.38,.59-1,1.34-1.27,1.88,.61,.26,1.59,.4,2.28,.59h0Z"/>
          <path d="M156.12,82.71l-.76-.07c-.82-.09-1.73-.19-2.4-.19,.65-.63,1.57-1.6,2.16-2.23l-.02,.02c-.56,.66-1.48,1.61-2.13,2.21,.65-.03,1.57,.05,2.38,.14l.43,.05-.45-.11c-.53-.12-1.07-.23-1.48-.4,.17-.4,.52-.88,.86-1.34l.37-.5-.33,.53c-.33,.45-.68,.93-.86,1.31,.38,.12,.92,.25,1.45,.37l.8,.18-.02,.05h0Z"/>
          <path class="cls-2" d="M153.47,82.21s2.68-.28,2.68-.28l-2.61-.11-.49,.22,.41,.17Z"/>
          <path d="M153.47,82.23l-.41-.17,.47-.26,2.63,.06c0,.06-2.61,.34-2.68,.37h0Z"/>
          <path class="cls-2" d="M155.47,82.79c-.84-.16-2.08-.42-2.91-.52,.79-.4,1.94-1.06,2.65-1.47-.52,.39-1.31,.91-1.7,1.31,.5,.25,1.36,.47,1.96,.68h0Z"/>
          <path d="M155.45,82.81l-.75-.15c-.72-.15-1.54-.3-2.16-.38,.79-.43,1.91-1.08,2.61-1.48h-.02c-.72,.48-1.8,1.12-2.57,1.48,.62,.03,1.44,.19,2.16,.34l.37,.05-.29-.08c-.46-.16-.97-.31-1.3-.49,.27-.3,.74-.63,1.17-.93l.46-.33-.44,.36c-.43,.3-.89,.64-1.17,.91,.33,.13,.83,.3,1.3,.43l.66,.22-.02,.05h0Z"/>
          <path class="cls-2" d="M153.24,82.18s2.36-1.02,2.36-1.02l-2.59,.69-.29,.3,.53,.03Z"/>
          <path d="M153.24,82.2l-.53-.02,.27-.35,2.59-.69s-2.25,1.01-2.32,1.05h-.02Zm2.34-1.05l-2.56,.72-.29,.32,.51-.03c.08-.04,.45-.21,2.34-1.01h0Z"/>
          <path class="cls-2" d="M155.38,83.1c-.68-.29-1.71-.77-2.4-.95,.51-.5,1.25-1.35,1.72-1.87-.32,.52-.81,1.19-1.02,1.71,.45,.39,1.18,.77,1.7,1.11h0Z"/>
          <path d="M155.36,83.11l-.5-.22c-.63-.27-1.37-.58-1.89-.74,.48-.51,1.19-1.32,1.65-1.86v.02c-.46,.61-1.15,1.37-1.64,1.84,.52,.12,1.26,.43,1.9,.71l.22,.08-.32-.18c-.4-.25-.82-.49-1.12-.76,.14-.4,.43-.84,.7-1.26l.22-.37-.19,.38c-.24,.43-.53,.87-.7,1.25,.3,.23,.72,.49,1.12,.72l.57,.35-.02,.05h0Z"/>
          <path class="cls-2" d="M153.37,82.36s1.85-.81,1.85-.81l-2.01,.27-.24,.35,.39,.18Z"/>
          <path d="M153.37,82.38l-.41-.17,.24-.39,2.01-.27c-.69,.35-1.78,.82-1.81,.84h-.02Zm1.83-.84l-1.99,.31-.23,.35,.38,.13c.07-.04,.39-.17,1.83-.79h0Z"/>
          <path class="cls-2" d="M151.83,99.52s-3.79,.04-3.79,.04l3.85,.93,.63-.4-.69-.57Z"/>
          <path d="M151.89,100.53l-3.85-.95c1.03-.05,3.69-.06,3.78-.07l.72,.56-.65,.47h0Zm-.07-.98s-.38,.03-3.78,.03l3.85,.9,.61-.41-.69-.51h0Z"/>
          <path class="cls-2" d="M152.52,99.77s-3.87-.9-3.87-.9l3.72,1.81,.71-.23-.57-.69Z"/>
          <path d="M152.37,100.72h-.02l-3.7-1.82c1.31,.27,3.77,.85,3.87,.85l.59,.72-.73,.26h0Zm-3.72-1.82l3.72,1.79,.71-.22-.59-.67h0c-.15,0-3.69-.85-3.85-.9h0Z"/>
          <path class="cls-2" d="M153.16,100.03s-3.84-.19-3.84-.19l3.84,1.15,.64-.37-.64-.6Z"/>
          <path d="M153.16,101l-3.85-1.14c0-.06,3.4,.15,3.81,.15l.7,.59-.66,.4h0Zm-3.84-1.13l3.84,1.09,.63-.37-.65-.56c-.59-.05-3.82-.17-3.82-.17h0Z"/>
          <path class="cls-2" d="M150.72,97.32c.99,1.1,2.49,2.85,3.55,3.83-1.29,.18-3.23,.71-4.44,1.02,.97-.45,2.32-.96,3.08-1.52-.5-1.01-1.52-2.3-2.18-3.33h0Z"/>
          <path d="M149.84,102.2l-.02-.04h.06s-.06,0-.06,0h0l.89-.41c.81-.35,1.64-.72,2.17-1.12-.35-.64-.88-1.42-1.42-2.18-.27-.39-.53-.77-.75-1.12l.81,.84c.88,1.02,1.95,2.22,2.76,2.95-1.24,.24-3.06,.71-4.28,1.04h-.06l-.1,.05h0Zm.87-4.87c.25,.32,.52,.7,.81,1.09,.52,.75,1.07,1.54,1.4,2.22-.55,.43-1.38,.81-2.2,1.17l-.62,.26c1.2-.3,2.96-.76,4.17-.94-.82-.72-1.9-1.92-2.79-2.91l-.77-.88h0Z"/>
          <path class="cls-2" d="M153.69,100.22s-3.85-1.26-3.85-1.26l3.61,2.14,.76-.16-.52-.73Z"/>
          <path d="M153.45,101.14h0l-3.6-2.15c1.31,.39,3.75,1.21,3.85,1.22l.54,.73-.79,.2h0Zm-3.6-2.15l3.61,2.11,.76-.16-.55-.7h0c-.08,0-3.44-1.12-3.82-1.25h0Z"/>
          <path class="cls-2" d="M151.09,97.57c1.08,1,2.71,2.59,3.84,3.43-1.24,.38-3.08,1.13-4.21,1.59,.88-.56,2.14-1.25,2.84-1.9-.61-.99-1.75-2.17-2.47-3.12h0Z"/>
          <path d="M150.72,102.61v-.03h0l.81-.52c.76-.47,1.54-.93,2.03-1.41-.4-.61-1.03-1.32-1.61-2.02-.31-.37-.61-.72-.86-1.04l.95,.82c.96,.9,2.09,1.94,2.92,2.57-1.22,.39-3,1.13-4.11,1.6h-.04l-.07,.03h0Zm.35-5.02c.27,.28,.61,.66,.9,1.01,.59,.72,1.21,1.43,1.61,2.05-.5,.5-1.28,.99-2.02,1.46l-.58,.36c1.13-.48,2.79-1.16,3.93-1.48-.83-.59-1.95-1.64-2.92-2.54l-.92-.85h0Z"/>
          <path class="cls-2" d="M154,100.46s-3.63,.72-3.63,.72l3.83,.27,.54-.53-.74-.45Z"/>
          <path d="M154.21,101.46h-.02l-3.83-.26c.98-.22,3.53-.72,3.61-.74l.78,.43-.54,.57h0Zm-.22-.98s-.3,.08-3.63,.72l3.81,.22,.54-.53-.72-.41h0Z"/>
          <path class="cls-2" d="M153.24,100.24s-3.8,.29-3.8,.29l3.91,.67,.6-.47-.71-.5Z"/>
          <path d="M153.35,101.21l-3.91-.67c1.03-.12,3.7-.3,3.78-.33l.75,.51-.62,.49h0Zm-.13-.96s-.37,.06-3.78,.29l3.91,.63,.59-.45-.72-.48h0Z"/>
          <path class="cls-2" d="M153.94,100.42s-3.92-.61-3.92-.61l3.84,1.56,.71-.29-.62-.65Z"/>
          <path d="M153.86,101.39h-.02l-3.82-1.56c.06-.04,3.76,.58,3.91,.58l.65,.66-.72,.32h0Zm-3.84-1.56l3.84,1.51,.69-.27-.63-.6h0c-.18,0-3.75-.61-3.89-.63h0Z"/>
          <path class="cls-2" d="M154.6,100.63s-3.86,.08-3.86,.08l3.92,.88,.62-.4-.69-.56Z"/>
          <path d="M154.66,101.62l-3.92-.89c1.04-.05,3.76-.09,3.84-.11l.72,.55-.64,.45h0Zm-.08-.94s-.39,.02-3.84,.06l3.92,.84,.61-.4-.69-.5h0Z"/>
          <path class="cls-2" d="M151.95,98.12c1.09,1.01,2.71,2.65,3.84,3.56-1.27,.27-3.16,.93-4.35,1.33,.92-.5,2.23-1.12,2.95-1.72-.59-.99-1.69-2.21-2.44-3.16h0Z"/>
          <path d="M151.46,103.03l-.02-.02,.03-.02h-.03l.86-.46c.78-.42,1.56-.84,2.08-1.26-.4-.63-1.01-1.37-1.6-2.09-.29-.37-.59-.72-.85-1.06l.95,.84c.95,.94,2.08,2.02,2.91,2.69-1.25,.31-3.08,.95-4.25,1.33h-.02l-.06,.04h0Zm.5-4.9c.29,.3,.57,.67,.87,1.04,.59,.71,1.21,1.46,1.58,2.11-.51,.45-1.32,.88-2.09,1.27l-.62,.35c1.17-.39,2.89-.98,4.08-1.24-.84-.63-1.97-1.71-2.91-2.67l-.91-.87h0Z"/>
          <path class="cls-2" d="M155.13,100.81s-3.91-.99-3.91-.99l3.75,1.89,.75-.21-.59-.69Z"/>
          <path d="M154.97,101.73l-3.75-1.89c1.3,.29,3.81,.93,3.91,.93l.61,.71-.77,.25h0Zm-3.75-1.89l3.77,1.84,.72-.22-.59-.63h0c-.14,0-3.76-.93-3.9-.99h0Z"/>
          <path class="cls-2" d="M152.34,98.34c1.15,.91,2.91,2.38,4.1,3.15-1.2,.44-2.98,1.34-4.08,1.87,.84-.63,2.03-1.41,2.68-2.09-.67-.93-1.87-2.05-2.69-2.93h0Z"/>
          <path d="M152.37,103.38l-.02-.02,.06-.04-.08,.03,.81-.6c.71-.5,1.44-1.03,1.89-1.52-.47-.59-1.15-1.26-1.79-1.92-.34-.33-.65-.67-.94-.96l1.04,.77c1.04,.82,2.23,1.81,3.09,2.36-1.13,.46-2.77,1.28-3.89,1.82l-.16,.08h0Zm-.06-5.03c.31,.27,.62,.59,.96,.93,.63,.66,1.32,1.34,1.77,1.97-.45,.51-1.17,1.04-1.87,1.54l-.59,.43c1.1-.54,2.71-1.34,3.82-1.75-.88-.54-2.07-1.48-3.09-2.31l-1.01-.82h0Z"/>
          <path class="cls-2" d="M155.47,101c0,.06-3.58,.97-3.58,.97h3.85l.5-.56-.77-.41Z"/>
          <path d="M151.89,101.99v-.04c.95-.25,3.47-.92,3.56-.96l.81,.4-.5,.6h-3.87Zm3.58-.95s-.37,.12-3.4,.92h3.67s.49-.56,.49-.56l-.75-.36h0Z"/>
          <polygon class="cls-6" points="161.54 96.13 157.46 93.29 153.37 96.13 154.89 91.6 151.32 88.78 155.93 88.78 157.46 84.26 159 88.78 163.6 88.78 160.02 91.6 161.54 96.13"/>
          <path d="M161.59,96.18l-4.15-2.88-4.05,2.82,1.49-4.53-3.56-2.8,4.61-.05,1.49-4.5,1.59,4.53,4.59-.03-3.56,2.88,1.56,4.56h0Zm-4.17-11.92l-1.49,4.52-4.61,.02,3.59,2.8-1.52,4.54,4.05-2.85,4.07,2.78-1.53-4.45,3.59-2.84-4.57,.04-1.58-4.54h0Z"/>
          <path class="cls-9" d="M172.71,95.43l1.31,.49,2.2-.39-.17,.45-1.14,.2c-.21,.04-.43,.06-.63,.06,.13,.15,.28,.33,.44,.51l.71,.87-.16,.43-1.37-1.76-1.32-.49,.14-.37Z"/>
          <path class="cls-9" d="M176.41,90.38l.04,.38-1.89,.21c-.35,.05-.61,.03-.8,0-.22-.05-.39-.16-.52-.33-.16-.15-.24-.37-.27-.65-.02-.27,0-.5,.08-.7,.1-.18,.24-.31,.41-.42,.2-.09,.49-.16,.82-.21l1.91-.2,.05,.39-1.92,.21c-.28,.03-.49,.07-.63,.14-.12,.05-.22,.15-.28,.27-.06,.13-.07,.27-.06,.45,.04,.27,.12,.47,.27,.58,.17,.09,.45,.13,.86,.08l1.91-.21Z"/>
          <path class="cls-9" d="M173.76,86.52l.37-.08,.25,1.21-1.2,.26c-.2-.16-.37-.32-.5-.5-.12-.18-.2-.37-.24-.61-.06-.27-.06-.54,.04-.8,.1-.26,.25-.48,.49-.63,.24-.18,.51-.29,.84-.37,.31-.06,.61-.06,.92,0,.29,.07,.53,.18,.71,.37,.16,.21,.3,.46,.36,.72,.03,.21,.03,.41,0,.61-.04,.17-.12,.34-.26,.46-.1,.13-.27,.23-.49,.33l-.17-.33c.15-.06,.28-.15,.37-.24,.07-.09,.13-.2,.17-.34,.02-.1,.04-.25,0-.39-.04-.17-.09-.32-.18-.44-.08-.12-.18-.2-.3-.26-.09-.05-.23-.09-.35-.12-.22-.04-.45,0-.67,.03-.28,.06-.54,.15-.71,.27-.17,.13-.29,.29-.35,.48-.05,.19-.07,.38-.04,.56,.04,.18,.09,.33,.21,.47,.1,.15,.2,.26,.3,.32l.6-.13-.16-.84Z"/>
          <polygon class="cls-9" points="159.85 76.04 160.42 72.76 160.8 72.84 160.31 75.73 161.72 75.98 161.66 76.35 159.85 76.04"/>
          <polygon class="cls-9" points="156.61 75.8 156.61 72.49 158.73 72.49 158.73 72.89 157.01 72.89 157.01 73.9 158.63 73.9 158.63 74.3 157.01 74.3 157.01 75.44 158.81 75.44 158.81 75.8 156.61 75.8"/>
          <path class="cls-9" d="M147.42,77.9l.37-.16c.18,.32,.25,.62,.2,.9-.04,.29-.17,.53-.39,.72-.25,.21-.49,.32-.73,.33-.26,.03-.5-.04-.75-.18-.27-.15-.5-.34-.71-.57-.24-.27-.38-.55-.45-.8-.08-.27-.08-.53,0-.77,.07-.24,.21-.46,.4-.62,.23-.18,.47-.28,.74-.28,.26,0,.5,.09,.76,.27l-.22,.32c-.21-.14-.39-.21-.56-.21-.17,0-.32,.06-.5,.21-.16,.16-.27,.29-.29,.5-.04,.19,0,.38,.06,.58,.1,.19,.21,.38,.35,.54,.18,.2,.38,.38,.57,.49s.37,.16,.56,.14c.18-.02,.35-.09,.48-.2,.17-.15,.27-.33,.28-.52,.04-.21-.03-.44-.17-.69h0Z"/>
          <polygon class="cls-9" points="146.03 80.81 143.57 78.62 143.84 78.31 146.3 80.51 146.03 80.81"/>
          <polygon class="cls-9" points="144.45 82.7 141.82 80.69 142.05 80.37 144.37 82.15 145.26 81.01 145.55 81.24 144.45 82.7"/>
          <path class="cls-9" d="M139.51,84.65l.15-.37,1.77,.72c.32,.13,.56,.24,.71,.39,.17,.13,.27,.3,.32,.51,.05,.2,0,.43-.08,.71-.1,.25-.24,.44-.39,.56-.17,.13-.36,.18-.56,.18-.24,0-.49-.07-.84-.2l-1.77-.72,.15-.36,1.78,.7c.27,.1,.49,.15,.62,.17,.15,.02,.27-.03,.38-.09,.12-.09,.2-.21,.25-.37,.12-.27,.12-.48,.03-.65-.09-.17-.33-.34-.72-.48l-1.79-.72Z"/>
          <polygon class="cls-9" points="141.44 92.68 138.13 92.7 138.11 90.58 138.5 90.58 138.52 92.32 139.52 92.31 139.52 90.68 139.91 90.68 139.93 92.3 141.06 92.3 141.05 90.5 141.42 90.48 141.44 92.68"/>
          <path class="cls-9" d="M153.82,76.29l-.64-3.25,.99-.2c.22-.04,.39-.07,.53-.05,.16,0,.33,.05,.47,.15,.17,.1,.33,.27,.45,.49,.12,.21,.2,.46,.27,.75,.05,.23,.06,.47,.05,.66,0,.21-.05,.38-.1,.51-.04,.15-.11,.27-.19,.35-.08,.09-.18,.17-.29,.25-.14,.06-.29,.1-.46,.15l-1.06,.2Zm.31-.46l.62-.12c.19-.05,.33-.08,.43-.15,.1-.07,.17-.14,.21-.23,.08-.12,.14-.27,.14-.46,.02-.17,0-.39-.04-.64-.08-.34-.17-.58-.31-.74-.14-.17-.29-.27-.43-.29-.11-.04-.29-.02-.5,.02l-.62,.13,.5,2.48Z"/>
          <path class="cls-9" d="M164.56,77.62l1.54-2.94,.96,.51c.18,.08,.3,.16,.38,.25,.12,.07,.2,.17,.26,.29,.05,.1,.07,.23,.06,.38-.02,.17-.05,.3-.13,.46-.14,.26-.31,.42-.56,.52-.22,.1-.51,.05-.89-.14l-.67-.35-.61,1.19-.35-.17Zm1.15-1.36l.67,.35c.22,.11,.4,.15,.55,.1,.14-.05,.25-.15,.36-.32,.06-.12,.06-.24,.06-.36s-.06-.23-.12-.28c-.06-.06-.17-.12-.31-.2l-.68-.34-.53,1.05Z"/>
          <path class="cls-9" d="M166.24,78.48l3.07-1.71,.32,.29-1.33,3.25-.33-.28,.41-.97-.92-.82-.92,.53-.31-.28Zm1.56-.44l.74,.66,.37-.88c.14-.28,.22-.49,.29-.65-.15,.13-.33,.25-.5,.37l-.9,.5Z"/>
          <path class="cls-9" d="M168.62,80.72l2.62-2.03,.79,1.03c.17,.21,.27,.38,.3,.53,.04,.14,.02,.28-.06,.47-.06,.16-.16,.27-.31,.39-.18,.14-.38,.21-.61,.2-.21-.02-.41-.12-.61-.31,.02,.11,.02,.21,.02,.28-.04,.16-.08,.33-.17,.52l-.39,.95-.3-.38,.32-.74c.07-.2,.14-.38,.17-.49,.06-.13,.07-.22,.06-.29,0-.06,0-.13-.04-.2-.02-.03-.06-.1-.12-.18l-.27-.35-1.17,.89-.23-.29Zm1.7-.82l.5,.66c.12,.16,.22,.25,.3,.3,.1,.04,.19,.07,.3,.06,.11-.02,.2-.06,.28-.12,.13-.11,.19-.22,.21-.38,.02-.13-.04-.27-.16-.47l-.6-.71-.85,.66Z"/>
          <path class="cls-9" d="M170.39,82.98l3.46-.61,.19,.36-2.3,2.65-.22-.37,.72-.81-.61-1.06-1.04,.21-.2-.37Zm1.61,.07l.48,.89,.66-.73c.18-.21,.35-.38,.49-.52-.2,.08-.4,.14-.62,.19l-1,.17Z"/>
          <path class="cls-9" d="M173.3,91.58l3.18,1.45-.04,.42-3.43,.85,.06-.45,1.04-.23,.12-1.22-.95-.42,.03-.4Zm1.27,.97l-.1,.99,.93-.21c.28-.06,.52-.1,.71-.13-.19-.05-.4-.14-.61-.24l-.93-.41Z"/>
          <path class="cls-9" d="M141.97,95.72l-3.23,.72-.29-1.27c-.05-.26-.06-.46-.03-.6,.02-.15,.1-.29,.24-.38,.12-.13,.27-.19,.47-.25,.22-.05,.41-.02,.62,.07,.18,.09,.31,.28,.43,.56,.03-.13,.06-.22,.1-.27,.1-.14,.21-.27,.37-.41l.77-.69,.09,.48-.58,.52c-.17,.15-.3,.28-.38,.38-.08,.09-.16,.17-.18,.24-.02,.07-.03,.14-.03,.2,0,.05,0,.12,.03,.21l.1,.46,1.42-.34,.09,.38Zm-1.9,.03l-.18-.82c-.04-.17-.08-.3-.15-.39-.06-.09-.14-.15-.24-.19-.11-.02-.2-.02-.3,0-.16,.02-.28,.1-.35,.23-.08,.13-.08,.28-.06,.5l.2,.91,1.07-.24Z"/>
          <path class="cls-9" d="M141.56,89.75l-3.31-.28,.09-1.12c.04-.19,.05-.34,.09-.43,.03-.15,.1-.27,.18-.35,.08-.09,.2-.17,.33-.21,.16-.05,.31-.06,.47-.06,.27,.04,.51,.14,.69,.3,.19,.17,.26,.48,.23,.89l-.07,.76,1.34,.1-.04,.39Zm-1.69-.54l.06-.76c.02-.26,0-.44-.11-.54-.1-.12-.24-.17-.45-.2-.12,0-.24,.02-.35,.06-.11,.06-.17,.13-.21,.23-.03,.06-.05,.17-.06,.35l-.07,.77,1.19,.09Z"/>
          <path class="cls-9" d="M142.95,84.85l-2.76-1.84,.61-.93c.12-.18,.25-.31,.38-.38,.12-.08,.27-.13,.44-.11,.15,.03,.3,.07,.41,.16,.12,.06,.22,.17,.29,.3,.06,.13,.08,.27,.06,.43,.15-.11,.31-.19,.49-.19,.16,0,.33,.07,.5,.17,.13,.08,.23,.19,.31,.32,.06,.11,.12,.22,.14,.33,.02,.13,0,.24-.05,.37-.03,.13-.1,.27-.22,.42l-.61,.94Zm-1.39-1.39l.36-.53c.09-.14,.17-.26,.18-.33,0-.1,0-.19-.02-.27-.04-.08-.1-.17-.2-.22-.08-.06-.18-.1-.28-.11-.1-.02-.17,0-.25,.07-.06,.06-.17,.17-.29,.36l-.31,.48,.82,.56Zm1.29,.85l.4-.61c.06-.12,.1-.2,.14-.24,.03-.09,.05-.16,.05-.24s-.03-.16-.08-.22c-.04-.08-.1-.15-.18-.21-.13-.06-.22-.11-.32-.11-.12,0-.2,.04-.3,.1-.09,.06-.17,.16-.27,.33l-.38,.56,.95,.63Z"/>
          <path class="cls-9" d="M148.42,78.48l-.81-3.41,.36-.22,2.77,2.16-.38,.26-.82-.67-1.04,.63,.27,1.04-.35,.21Zm0-1.6l.82-.52-.73-.62c-.24-.18-.39-.34-.53-.46,.08,.18,.16,.4,.19,.61l.26,1Z"/>
        </g>
      </g>
    </g>
  </g>
</svg>