<?xml version="1.0" encoding="UTF-8"?>
<svg id="Capa_2" data-name="Capa 2" xmlns="http://www.w3.org/2000/svg" xmlns:xlink="http://www.w3.org/1999/xlink" viewBox="0 0 314.94 183.7">
  <defs>
    <style>
      .cls-1 {
        fill: #fff;
      }

      .cls-2 {
        fill: #cb001c;
      }

      .cls-3 {
        clip-path: url(#clippath);
      }

      .cls-4 {
        fill: none;
      }

      .cls-5 {
        fill: #2a3560;
      }
    </style>
    <clipPath id="clippath">
      <rect class="cls-4" width="314.94" height="183.7"/>
    </clipPath>
  </defs>
  <g id="_4" data-name="4">
    <g id="USA">
      <g class="cls-3">
        <rect class="cls-2" y="169.57" width="314.94" height="14.13"/>
        <rect class="cls-1" y="155.44" width="314.94" height="14.13"/>
        <rect class="cls-2" y="141.32" width="314.94" height="14.12"/>
        <rect class="cls-1" y="127.19" width="314.94" height="14.13"/>
        <rect class="cls-2" y="113.05" width="314.94" height="14.14"/>
        <rect class="cls-1" y="98.93" width="314.94" height="14.12"/>
        <rect class="cls-2" y="84.79" width="314.94" height="14.15"/>
        <rect class="cls-1" y="70.67" width="314.94" height="14.12"/>
        <rect class="cls-2" y="56.54" width="314.94" height="14.13"/>
        <rect class="cls-1" y="42.4" width="314.94" height="14.14"/>
        <rect class="cls-2" y="28.27" width="314.94" height="14.13"/>
        <rect class="cls-1" y="14.14" width="314.94" height="14.13"/>
        <rect class="cls-2" width="314.94" height="14.14"/>
        <rect class="cls-5" width="143.82" height="98.93"/>
        <polygon class="cls-1" points="12.99 10.9 14.22 14.65 18.16 14.65 14.97 16.96 16.18 20.7 12.99 18.39 9.81 20.7 11.05 16.96 7.86 14.65 11.77 14.65 12.99 10.9"/>
        <polygon class="cls-1" points="12.99 27.43 14.22 31.15 18.16 31.15 14.97 33.45 16.18 37.21 12.99 34.89 9.81 37.21 11.05 33.45 7.86 31.15 11.77 31.15 12.99 27.43"/>
        <polygon class="cls-1" points="12.99 43.94 14.22 47.67 18.16 47.67 14.97 49.98 16.18 53.72 12.99 51.4 9.81 53.72 11.05 49.98 7.86 47.67 11.77 47.67 12.99 43.94"/>
        <polygon class="cls-1" points="12.99 60.44 14.22 64.19 18.16 64.19 14.97 66.5 16.18 70.23 12.99 67.93 9.81 70.23 11.05 66.5 7.86 64.19 11.77 64.19 12.99 60.44"/>
        <polygon class="cls-1" points="12.99 76.95 14.22 80.71 18.16 80.71 14.97 83 16.18 86.74 12.99 84.43 9.81 86.74 11.05 83 7.86 80.71 11.77 80.71 12.99 76.95"/>
        <polygon class="cls-1" points="24.5 19.6 25.68 23.35 29.63 23.35 26.46 25.67 27.65 29.4 24.5 27.1 21.33 29.4 22.52 25.67 19.35 23.35 23.29 23.35 24.5 19.6"/>
        <polygon class="cls-1" points="24.5 36.12 25.68 39.85 29.63 39.85 26.46 42.17 27.65 45.9 24.5 43.61 21.33 45.9 22.52 42.17 19.35 39.85 23.29 39.85 24.5 36.12"/>
        <polygon class="cls-1" points="24.5 52.63 25.68 56.37 29.63 56.37 26.46 58.68 27.65 62.42 24.5 60.11 21.33 62.42 22.52 58.68 19.35 56.37 23.29 56.37 24.5 52.63"/>
        <polygon class="cls-1" points="24.5 69.15 25.68 72.88 29.63 72.88 26.46 75.19 27.65 78.92 24.5 76.6 21.33 78.92 22.52 75.19 19.35 72.88 23.29 72.88 24.5 69.15"/>
        <polygon class="cls-1" points="36.12 10.9 37.35 14.65 41.29 14.65 38.1 16.96 39.33 20.7 36.12 18.39 32.97 20.7 34.18 16.96 30.99 14.65 34.91 14.65 36.12 10.9"/>
        <polygon class="cls-1" points="36.12 27.43 37.35 31.15 41.29 31.15 38.1 33.45 39.33 37.21 36.12 34.89 32.97 37.21 34.18 33.45 30.99 31.15 34.91 31.15 36.12 27.43"/>
        <polygon class="cls-1" points="36.12 43.94 37.35 47.67 41.29 47.67 38.1 49.98 39.33 53.72 36.12 51.4 32.97 53.72 34.18 49.98 30.99 47.67 34.91 47.67 36.12 43.94"/>
        <polygon class="cls-1" points="36.12 60.44 37.35 64.19 41.29 64.19 38.1 66.5 39.33 70.23 36.12 67.93 32.97 70.23 34.18 66.5 30.99 64.19 34.91 64.19 36.12 60.44"/>
        <polygon class="cls-1" points="36.12 76.95 37.35 80.71 41.29 80.71 38.1 83 39.33 86.74 36.12 84.43 32.97 86.74 34.18 83 30.99 80.71 34.91 80.71 36.12 76.95"/>
        <polygon class="cls-1" points="47.63 19.6 48.84 23.35 52.8 23.35 49.59 25.67 50.82 29.4 47.63 27.1 44.46 29.4 45.69 25.67 42.48 23.35 46.42 23.35 47.63 19.6"/>
        <polygon class="cls-1" points="47.63 36.12 48.84 39.85 52.8 39.85 49.59 42.17 50.82 45.9 47.63 43.61 44.46 45.9 45.69 42.17 42.48 39.85 46.42 39.85 47.63 36.12"/>
        <polygon class="cls-1" points="47.63 52.63 48.84 56.37 52.8 56.37 49.59 58.68 50.82 62.42 47.63 60.11 44.46 62.42 45.69 58.68 42.48 56.37 46.42 56.37 47.63 52.63"/>
        <polygon class="cls-1" points="47.63 69.15 48.84 72.88 52.8 72.88 49.59 75.19 50.82 78.92 47.63 76.6 44.46 78.92 45.69 75.19 42.48 72.88 46.42 72.88 47.63 69.15"/>
        <polygon class="cls-1" points="59.29 10.9 60.51 14.65 64.42 14.65 61.23 16.96 62.49 20.7 59.29 18.39 56.1 20.7 57.31 16.96 54.15 14.65 58.08 14.65 59.29 10.9"/>
        <polygon class="cls-1" points="59.29 27.43 60.51 31.15 64.42 31.15 61.23 33.45 62.49 37.21 59.29 34.89 56.1 37.21 57.31 33.45 54.15 31.15 58.08 31.15 59.29 27.43"/>
        <polygon class="cls-1" points="59.29 43.94 60.51 47.67 64.42 47.67 61.23 49.98 62.49 53.72 59.29 51.4 56.1 53.72 57.31 49.98 54.15 47.67 58.08 47.67 59.29 43.94"/>
        <polygon class="cls-1" points="59.29 60.44 60.51 64.19 64.42 64.19 61.23 66.5 62.49 70.23 59.29 67.93 56.1 70.23 57.31 66.5 54.15 64.19 58.08 64.19 59.29 60.44"/>
        <polygon class="cls-1" points="59.29 76.95 60.51 80.71 64.42 80.71 61.23 83 62.49 86.74 59.29 84.43 56.1 86.74 57.31 83 54.15 80.71 58.08 80.71 59.29 76.95"/>
        <polygon class="cls-1" points="70.79 19.6 72 23.35 75.93 23.35 72.75 25.67 73.95 29.4 70.79 27.1 67.62 29.4 68.81 25.67 65.64 23.35 69.57 23.35 70.79 19.6"/>
        <polygon class="cls-1" points="70.79 36.12 72 39.85 75.93 39.85 72.75 42.17 73.95 45.9 70.79 43.61 67.62 45.9 68.81 42.17 65.64 39.85 69.57 39.85 70.79 36.12"/>
        <polygon class="cls-1" points="70.79 52.63 72 56.37 75.93 56.37 72.75 58.68 73.95 62.42 70.79 60.11 67.62 62.42 68.81 58.68 65.64 56.37 69.57 56.37 70.79 52.63"/>
        <polygon class="cls-1" points="70.79 69.15 72 72.88 75.93 72.88 72.75 75.19 73.95 78.92 70.79 76.6 67.62 78.92 68.81 75.19 65.64 72.88 69.57 72.88 70.79 69.15"/>
        <polygon class="cls-1" points="82.41 10.9 83.64 14.65 87.56 14.65 84.39 16.96 85.62 20.7 82.41 18.39 79.26 20.7 80.45 16.96 77.28 14.65 81.2 14.65 82.41 10.9"/>
        <polygon class="cls-1" points="82.41 27.43 83.64 31.15 87.56 31.15 84.39 33.45 85.62 37.21 82.41 34.89 79.26 37.21 80.45 33.45 77.28 31.15 81.2 31.15 82.41 27.43"/>
        <polygon class="cls-1" points="82.41 43.94 83.64 47.67 87.56 47.67 84.39 49.98 85.62 53.72 82.41 51.4 79.26 53.72 80.45 49.98 77.28 47.67 81.2 47.67 82.41 43.94"/>
        <polygon class="cls-1" points="82.41 60.44 83.64 64.19 87.56 64.19 84.39 66.5 85.62 70.23 82.41 67.93 79.26 70.23 80.45 66.5 77.28 64.19 81.2 64.19 82.41 60.44"/>
        <polygon class="cls-1" points="82.41 76.95 83.64 80.71 87.56 80.71 84.39 83 85.62 86.74 82.41 84.43 79.26 86.74 80.45 83 77.28 80.71 81.2 80.71 82.41 76.95"/>
        <polygon class="cls-1" points="93.92 19.6 95.13 23.35 99.09 23.35 95.9 25.67 97.11 29.4 93.92 27.1 90.75 29.4 91.98 25.67 88.79 23.35 92.73 23.35 93.92 19.6"/>
        <polygon class="cls-1" points="93.92 36.12 95.13 39.85 99.09 39.85 95.9 42.17 97.11 45.9 93.92 43.61 90.75 45.9 91.98 42.17 88.79 39.85 92.73 39.85 93.92 36.12"/>
        <polygon class="cls-1" points="93.92 52.63 95.13 56.37 99.09 56.37 95.9 58.68 97.11 62.42 93.92 60.11 90.75 62.42 91.98 58.68 88.79 56.37 92.73 56.37 93.92 52.63"/>
        <polygon class="cls-1" points="93.92 69.15 95.13 72.88 99.09 72.88 95.9 75.19 97.11 78.92 93.92 76.6 90.75 78.92 91.98 75.19 88.79 72.88 92.73 72.88 93.92 69.15"/>
        <polygon class="cls-1" points="105.58 10.9 106.81 14.65 110.73 14.65 107.56 16.96 108.75 20.7 105.58 18.39 102.43 20.7 103.62 16.96 100.45 14.65 104.37 14.65 105.58 10.9"/>
        <polygon class="cls-1" points="105.58 27.43 106.81 31.15 110.73 31.15 107.56 33.45 108.75 37.21 105.58 34.89 102.43 37.21 103.62 33.45 100.45 31.15 104.37 31.15 105.58 27.43"/>
        <polygon class="cls-1" points="105.58 43.94 106.81 47.67 110.73 47.67 107.56 49.98 108.75 53.72 105.58 51.4 102.43 53.72 103.62 49.98 100.45 47.67 104.37 47.67 105.58 43.94"/>
        <polygon class="cls-1" points="105.58 60.44 106.81 64.19 110.73 64.19 107.56 66.5 108.75 70.23 105.58 67.93 102.43 70.23 103.62 66.5 100.45 64.19 104.37 64.19 105.58 60.44"/>
        <polygon class="cls-1" points="105.58 76.95 106.81 80.71 110.73 80.71 107.56 83 108.75 86.74 105.58 84.43 102.43 86.74 103.62 83 100.45 80.71 104.37 80.71 105.58 76.95"/>
        <polygon class="cls-1" points="117.09 19.6 118.28 23.35 122.22 23.35 119.07 25.67 120.24 29.4 117.09 27.1 113.88 29.4 115.11 25.67 111.96 23.35 115.86 23.35 117.09 19.6"/>
        <polygon class="cls-1" points="117.09 36.12 118.28 39.85 122.22 39.85 119.07 42.17 120.24 45.9 117.09 43.61 113.88 45.9 115.11 42.17 111.96 39.85 115.86 39.85 117.09 36.12"/>
        <polygon class="cls-1" points="117.09 52.63 118.28 56.37 122.22 56.37 119.07 58.68 120.24 62.42 117.09 60.11 113.88 62.42 115.11 58.68 111.96 56.37 115.86 56.37 117.09 52.63"/>
        <polygon class="cls-1" points="117.09 69.15 118.28 72.88 122.22 72.88 119.07 75.19 120.24 78.92 117.09 76.6 113.88 78.92 115.11 75.19 111.96 72.88 115.86 72.88 117.09 69.15"/>
        <polygon class="cls-1" points="128.7 10.9 129.95 14.65 133.85 14.65 130.68 16.96 131.91 20.7 128.7 18.39 125.55 20.7 126.74 16.96 123.57 14.65 127.5 14.65 128.7 10.9"/>
        <polygon class="cls-1" points="128.7 27.43 129.95 31.15 133.85 31.15 130.68 33.45 131.91 37.21 128.7 34.89 125.55 37.21 126.74 33.45 123.57 31.15 127.5 31.15 128.7 27.43"/>
        <polygon class="cls-1" points="128.7 43.94 129.95 47.67 133.85 47.67 130.68 49.98 131.91 53.72 128.7 51.4 125.55 53.72 126.74 49.98 123.57 47.67 127.5 47.67 128.7 43.94"/>
        <polygon class="cls-1" points="128.7 60.44 129.95 64.19 133.85 64.19 130.68 66.5 131.91 70.23 128.7 67.93 125.55 70.23 126.74 66.5 123.57 64.19 127.5 64.19 128.7 60.44"/>
        <polygon class="cls-1" points="128.7 76.95 129.95 80.71 133.85 80.71 130.68 83 131.91 86.74 128.7 84.43 125.55 86.74 126.74 83 123.57 80.71 127.5 80.71 128.7 76.95"/>
      </g>
    </g>
  </g>
</svg>